<?xml version="1.0" ?><svg xmlns="http://www.w3.org/2000/svg" xmlns:xlink="http://www.w3.org/1999/xlink" version="1.1" viewBox="0 0 512 512" style="enable-background:new 0 0 512 512;" xml:space="preserve"><g id="_x31_4_Medical_Book"><g><linearGradient id="SVGID_1_" gradientUnits="userSpaceOnUse" x1="282.3356" y1="-163.9059" x2="229.2504" y2="823.4789"><stop offset="0" style="stop-color:#EAE9FE"/><stop offset="0.4236" style="stop-color:#EEEEFE"/><stop offset="0.8967" style="stop-color:#FBFBFF"/><stop offset="1" style="stop-color:#FFFFFF"/></linearGradient><path style="fill:url(#SVGID_1_);" d="M449.506,263.524c-8.638-6.722-19.071-12.513-23.089-22.694    c-5.464-13.845,3.27-28.704,8.42-42.669c15.726-42.64-4.457-93.136-40.669-120.598c-69.082-52.39-203.931-34.026-222.774,38.385    c-7.971,30.632,6.31,65.58-8.302,93.657c-18.437,35.427-67.345,37.817-98.845,53.57c-39.025,19.517-46.833,62.014-18.845,94.368    c10.278,11.881,23.429,20.066,32.854,33.047c13.639,18.783,21.288,39.553,39.536,55.046c25.696,21.817,68.658,27.226,91.407,2.351    c12.81-14.007,16.978-34.645,30.961-47.482c18.406-16.898,47.498-14.625,70.92-5.923c23.422,8.702,45.145,22.753,69.815,26.712    c38.573,6.191,79.932-16.442,95.512-52.268S480.339,287.516,449.506,263.524z"/><path style="fill:#EDEDED;" d="M412.893,97.767v315.594c0,17.445-14.13,31.575-31.575,31.575H130.689    c-17.445,0-31.575-14.13-31.575-31.575V97.767c0-17.366,14.13-31.575,31.575-31.575h250.628    C398.763,66.192,412.893,80.401,412.893,97.767z"/><path style="fill:#FF5859;" d="M185.602,66.228h-54.89c-17.439,0-31.575,14.136-31.575,31.575v315.594    c0,17.439,14.136,31.575,31.575,31.575h54.89V66.228z"/><path style="fill:#EDEDED;" d="M139.377,135.391c0,6.635-5.436,12.151-12.151,12.151c-6.715,0-12.151-5.516-12.151-12.151    c0-6.715,5.436-12.232,12.151-12.232C133.941,123.159,139.377,128.675,139.377,135.391z"/><path style="fill:#EDEDED;" d="M139.377,215.533c0,6.635-5.436,12.151-12.151,12.151c-6.715,0-12.151-5.516-12.151-12.151    c0-6.715,5.436-12.232,12.151-12.232C133.941,203.301,139.377,208.818,139.377,215.533z"/><path style="fill:#EDEDED;" d="M139.377,295.675c0,6.635-5.436,12.151-12.151,12.151c-6.715,0-12.151-5.516-12.151-12.151    c0-6.715,5.436-12.232,12.151-12.232C133.941,283.444,139.377,288.96,139.377,295.675z"/><path style="fill:#EDEDED;" d="M139.377,375.818c0,6.635-5.436,12.151-12.151,12.151c-6.715,0-12.151-5.516-12.151-12.151    c0-6.715,5.436-12.232,12.151-12.232C133.941,363.586,139.377,369.102,139.377,375.818z"/><path style="fill:#F9BB40;" d="M441.437,127.239v48.825c0,6.537-5.299,11.836-11.836,11.836h-16.689v-72.498h16.689    C436.138,115.402,441.437,120.702,441.437,127.239z"/><path style="fill:#5EDB6B;" d="M441.437,227.329v48.825c0,6.537-5.299,11.836-11.836,11.836h-16.689v-72.498h16.689    C436.138,215.493,441.437,220.792,441.437,227.329z"/><path style="fill:#FF5859;" d="M350.45,250.111c-2.48,4.41-7.166,6.891-11.852,6.891c-2.389,0-4.778-0.551-6.891-1.838    l-24.164-13.965v27.838c0,7.626-6.156,13.782-13.782,13.782c-7.534,0-13.782-6.156-13.782-13.782V241.29l-24.072,13.874    c-2.113,1.286-4.502,1.838-6.891,1.838c-4.686,0-9.372-2.481-11.852-6.891c-3.859-6.523-1.562-14.976,4.961-18.835l24.072-13.874    l-24.072-13.874c-6.523-3.859-8.82-12.311-4.961-18.835c3.767-6.615,12.219-8.82,18.743-5.053l24.072,13.874v-27.747    c0-7.626,6.248-13.782,13.782-13.782c7.626,0,13.782,6.156,13.782,13.782v27.838l24.164-13.965    c6.523-3.767,14.976-1.562,18.743,5.053c3.859,6.523,1.562,14.976-4.961,18.835l-24.072,13.874l24.072,13.874    C352.012,235.135,354.309,243.587,350.45,250.111z"/><path style="fill:#332E8E;" d="M67.745,375.748c0,16.042,12.066,29.291,27.579,31.174v6.438c0,6.109,1.559,11.86,4.296,16.879    c5.995,11.023,17.683,18.522,31.09,18.522h54.891c0.122,0,0.236-0.025,0.355-0.036h195.361c19.5,0,35.364-15.865,35.364-35.365    v-121.58h12.919c8.616,0,15.626-7.01,15.626-15.626v-48.826c0-8.616-7.01-15.626-15.626-15.626h-12.919V191.69h12.919    c8.616,0,15.626-7.01,15.626-15.626v-48.826c0-8.616-7.01-15.626-15.626-15.626h-12.919V97.767    c0-19.5-15.864-35.364-35.364-35.364H130.689c-19.5,0-35.364,15.864-35.364,35.364v6.438    c-15.513,1.88-27.579,15.104-27.579,31.115c0,16.042,12.066,29.292,27.579,31.175v17.852    c-15.513,1.88-27.579,15.104-27.579,31.115c0,16.042,12.066,29.292,27.579,31.175v17.852    c-15.513,1.88-27.579,15.104-27.579,31.115c0,16.042,12.066,29.292,27.579,31.175v17.851    C79.812,346.512,67.745,359.736,67.745,375.748z M416.7,219.282h12.901c4.437,0,8.047,3.61,8.047,8.047v48.826    c0,4.437-3.61,8.047-8.047,8.047H416.7V219.282z M416.7,119.191h12.901c4.437,0,8.047,3.61,8.047,8.047v48.826    c0,4.437-3.61,8.047-8.047,8.047H416.7V119.191z M75.324,375.748c0-11.826,8.682-21.635,20.001-23.459v46.975    C84.006,397.436,75.324,387.603,75.324,375.748z M181.813,441.147h-51.124c-10.518,0-19.688-5.876-24.405-14.517    c-2.141-3.936-3.358-8.445-3.358-13.232v-61.105c6.532,1.059,12.183,4.764,15.79,10.002c-4.457,2.843-7.43,7.835-7.43,13.522    c0,8.79,7.152,15.941,15.941,15.941s15.94-7.152,15.94-15.941c0-8.834-7.15-16.02-15.94-16.02c-0.377,0-0.746,0.031-1.116,0.057    c-4.849-8.203-13.305-14.014-23.185-15.219v-72.484c6.532,1.059,12.183,4.764,15.789,10.001c-4.457,2.844-7.43,7.835-7.43,13.522    c0,8.79,7.152,15.941,15.941,15.941s15.94-7.152,15.94-15.941c0-8.834-7.15-16.02-15.94-16.02c-0.377,0-0.746,0.031-1.116,0.057    c-4.849-8.202-13.305-14.013-23.185-15.217v-72.485c6.532,1.059,12.183,4.764,15.789,10.001c-4.457,2.844-7.43,7.836-7.43,13.523    c0,8.79,7.152,15.94,15.941,15.94s15.94-7.15,15.94-15.94c0-8.834-7.15-16.022-15.94-16.022c-0.377,0-0.746,0.031-1.116,0.057    c-4.849-8.203-13.305-14.013-23.185-15.218v-72.485c6.532,1.059,12.183,4.764,15.79,10.002c-4.457,2.843-7.43,7.835-7.43,13.522    c0,8.79,7.152,15.94,15.941,15.94s15.94-7.15,15.94-15.94c0-8.834-7.15-16.02-15.94-16.02c-0.377,0-0.745,0.031-1.116,0.057    c-4.849-8.203-13.305-14.014-23.185-15.219v-6.404c0-15.321,12.464-27.787,27.785-27.787h51.102V441.147z M122.904,375.748    c0,2.093,1.696,3.789,3.789,3.789c2.093,0,3.789-1.696,3.789-3.789c0-2.786-0.4-5.474-1.085-8.048    c3.555,0.972,6.191,4.225,6.191,8.117c0,4.612-3.751,8.363-8.362,8.363c-4.611,0-8.363-3.751-8.363-8.363    c0-2.644,1.235-4.979,3.126-6.528C122.571,371.347,122.904,373.508,122.904,375.748z M122.904,295.606    c0,2.093,1.696,3.789,3.789,3.789c2.093,0,3.789-1.696,3.789-3.789c0-2.786-0.401-5.474-1.085-8.048    c3.555,0.972,6.191,4.225,6.191,8.117c0,4.612-3.751,8.363-8.362,8.363c-4.611,0-8.363-3.751-8.363-8.363    c0-2.644,1.235-4.979,3.126-6.528C122.571,291.204,122.904,293.365,122.904,295.606z M122.904,215.463    c0,2.093,1.696,3.789,3.789,3.789c2.093,0,3.789-1.696,3.789-3.789c0-2.786-0.401-5.474-1.085-8.048    c3.555,0.972,6.191,4.226,6.191,8.118c0,4.611-3.751,8.362-8.362,8.362c-4.611,0-8.363-3.751-8.363-8.362    c0-2.644,1.235-4.979,3.126-6.529C122.571,211.062,122.904,213.222,122.904,215.463z M122.904,135.32    c0,2.093,1.696,3.789,3.789,3.789c2.093,0,3.789-1.696,3.789-3.789c0-2.786-0.4-5.474-1.085-8.047    c3.555,0.972,6.191,4.225,6.191,8.117c0,4.611-3.751,8.362-8.362,8.362c-4.611,0-8.363-3.751-8.363-8.362    c0-2.644,1.235-4.979,3.126-6.528C122.571,130.919,122.904,133.08,122.904,135.32z M409.103,97.767v315.594    c0,15.321-12.464,27.787-27.785,27.787H189.391V69.982h191.927C396.639,69.982,409.103,82.446,409.103,97.767z M75.324,135.32    c0-11.824,8.682-21.634,20.001-23.458v46.975C84.006,157.009,75.324,147.175,75.324,135.32z M75.324,215.463    c0-11.824,8.682-21.634,20.001-23.458v46.975C84.006,237.152,75.324,227.318,75.324,215.463z M75.324,295.606    c0-11.824,8.682-21.634,20.001-23.458v46.975C84.006,317.294,75.324,307.46,75.324,295.606z"/><path style="fill:#332E8E;" d="M240.235,206.813l18.375,10.591l-18.412,10.612c-8.521,5.04-11.092,15.919-6.334,23.954    c4.936,8.778,16.226,11.176,23.937,6.478l18.39-10.599v21.19c0,9.689,7.882,17.571,17.571,17.571s17.571-7.882,17.571-17.571    v-21.273l18.403,10.635c7.75,4.718,19.015,2.411,23.996-6.396c4.942-8.397,1.936-19.11-6.351-24.012l-18.376-10.589l18.413-10.613    c8.391-4.963,11.174-15.775,6.325-23.97c-4.807-8.444-15.575-11.285-23.932-6.46l-18.479,10.679v-21.273    c0-9.689-7.882-17.571-17.571-17.571s-17.571,7.882-17.571,17.571v21.19l-18.387-10.597c-8.412-4.856-19.168-1.908-23.899,6.405    C228.963,191.118,231.878,201.869,240.235,206.813z M240.459,186.57c2.706-4.755,8.808-6.387,13.557-3.645l24.071,13.873    c1.174,0.676,2.619,0.676,3.788-0.002c1.172-0.677,1.893-1.928,1.893-3.281v-27.747c0-5.51,4.482-9.992,9.992-9.992    s9.992,4.482,9.992,9.992v27.838c0,1.354,0.723,2.605,1.896,3.282c1.174,0.677,2.62,0.677,3.789-0.001l24.163-13.964    c4.6-2.658,10.758-1.267,13.587,3.702c2.802,4.734,1.072,10.863-3.592,13.621l-24.073,13.874    c-1.174,0.677-1.897,1.929-1.897,3.284c0,1.354,0.723,2.606,1.897,3.284l24.036,13.851c4.745,2.807,6.414,8.936,3.629,13.645    c-0.014,0.023-0.028,0.047-0.041,0.072c-2.79,4.96-9.188,6.277-13.545,3.629l-24.164-13.964c-1.171-0.677-2.616-0.678-3.789-0.001    s-1.896,1.928-1.896,3.282v27.838c0,5.51-4.482,9.992-9.992,9.992s-9.992-4.482-9.992-9.992v-27.747    c0-1.353-0.722-2.604-1.893-3.281c-0.587-0.339-1.241-0.508-1.896-0.508c-0.654,0-1.306,0.169-1.892,0.506l-24.15,13.92    c-4.18,2.545-10.627,1.379-13.51-3.745c-2.819-4.766-1.044-10.881,3.592-13.623l24.071-13.873    c1.174-0.677,1.897-1.929,1.897-3.284c0-1.354-0.723-2.606-1.897-3.284l-24.034-13.852    C239.374,197.498,237.594,191.411,240.459,186.57z"/></g></g><g id="Layer_1"/></svg>