<?xml version="1.0" ?><svg xmlns="http://www.w3.org/2000/svg" xmlns:xlink="http://www.w3.org/1999/xlink" version="1.1" viewBox="0 0 512 512" style="enable-background:new 0 0 512 512;" xml:space="preserve"><g id="_x30_9_Health_Care"><g><linearGradient id="SVGID_1_" gradientUnits="userSpaceOnUse" x1="282.3356" y1="-163.9059" x2="229.2504" y2="823.4789"><stop offset="0" style="stop-color:#EAE9FE"/><stop offset="0.4236" style="stop-color:#EEEEFE"/><stop offset="0.8967" style="stop-color:#FBFBFF"/><stop offset="1" style="stop-color:#FFFFFF"/></linearGradient><path style="fill:url(#SVGID_1_);" d="M449.506,263.524c-8.638-6.722-19.071-12.513-23.089-22.694    c-5.464-13.845,3.27-28.704,8.42-42.669c15.726-42.64-4.457-93.136-40.669-120.598c-69.082-52.39-203.931-34.026-222.774,38.385    c-7.971,30.632,6.31,65.58-8.302,93.657c-18.437,35.427-67.345,37.817-98.845,53.57c-39.025,19.517-46.833,62.014-18.845,94.368    c10.278,11.881,23.429,20.066,32.854,33.047c13.639,18.783,21.288,39.553,39.536,55.046c25.696,21.817,68.658,27.226,91.407,2.351    c12.81-14.007,16.978-34.645,30.961-47.482c18.406-16.898,47.498-14.625,70.92-5.923c23.422,8.702,45.145,22.753,69.815,26.712    c38.573,6.191,79.932-16.442,95.512-52.268S480.339,287.516,449.506,263.524z"/><path style="fill:#FFC69F;" d="M340.129,336.239l74.851-34.513c12.95-6.27,27.998,3.163,27.998,17.551v0    c0,7.045-3.8,13.542-9.94,16.996c0,0-115.156,82.999-166.421,85.877c-33.286,1.868-122.815-51.96-122.815-51.96v-95.986    c0,0,28.785-0.808,62.657,0c24.467,0.584,50.933,12.979,71.289,31.338l45.625-0.012c11.006-0.001,19.929,8.921,19.929,19.927v0    c0,11.005-8.922,19.927-19.927,19.927h-88.148"/><g><path style="fill:#F7B69A;" d="M343.302,325.458c0.063,4.984-1.823,9.979-5.221,13.685c-3.381,3.716-8.217,6.081-13.254,6.456     c-1.267,0.098-2.508,0.091-3.751,0.099l-3.733,0.011l-7.465,0.017l-14.93,0.034l-29.86-0.086l-14.93-0.105l-14.93-0.183     l14.93-0.184l14.93-0.105l29.86-0.086c9.943-0.001,19.929,0.097,29.838,0.016c4.9-0.296,9.651-2.535,13.028-6.132     C341.238,335.339,343.243,330.443,343.302,325.458z"/></g><path style="fill:#FF5859;" d="M403.312,155.007c-9.161,50.171-64.29,88.432-84.929,101.096c-4.796,2.964-10.885,2.964-15.682,0    c-20.64-12.664-75.768-50.925-84.929-101.096c-6.467-35.243,17.945-70.164,53.835-71.618c14.766-0.593,28.346,4.311,38.908,12.987    c10.508-8.676,24.196-13.58,38.962-12.987C385.368,84.844,409.779,119.764,403.312,155.007z"/><path style="fill:#EDEDED;" d="M306.872,224.41c-5.987-0.102-11.294-3.837-13.353-9.295l-12.042-32.758l-1.462,2.942    c-2.394,4.894-7.307,7.964-12.8,7.964h-52.627c-7.896,0-14.321-6.424-14.321-14.321c0-7.874,6.424-14.279,14.321-14.279h43.767    l12.289-24.786c2.357-4.81,7.383-7.94,12.789-7.94c0.261,0,0.521,0.007,0.781,0.021c5.724,0.316,10.694,3.99,12.659,9.364    l10.504,28.532l17.08-43.508c2.183-5.515,7.487-9.065,13.518-9.065l0.293,0.006c6.124,0.208,11.429,4.275,13.202,10.12    l11.318,37.256h42.023c7.896,0,14.321,6.405,14.321,14.279c0,7.896-6.424,14.321-14.321,14.321h-52.627    c-6.308,0-11.808-4.065-13.685-10.113l-2.464-8.098l-15.813,40.293c-2.03,5.381-7.395,9.065-13.312,9.065H306.872z"/><path style="fill:#5EDB6B;" d="M161.215,276.178v101.244c0,12.898-10.412,23.31-23.31,23.31h-44.6    c-12.821,0-23.31-10.412-23.31-23.31V276.178c0-12.82,10.489-23.31,23.31-23.31h44.6    C150.803,252.868,161.215,263.358,161.215,276.178z"/><path style="fill:#EDEDED;" d="M143.81,373.693c0,6.838-5.439,12.277-12.277,12.277c-6.76,0-12.277-5.439-12.277-12.277    c0-6.76,5.517-12.276,12.277-12.276C138.371,361.416,143.81,366.933,143.81,373.693z"/><path style="fill:#332E8E;" d="M214.587,197.052h17.316c20.625,30.234,52.581,52.32,68.805,62.275    c2.987,1.847,6.414,2.769,9.836,2.769s6.841-0.921,9.821-2.763c16.228-9.958,48.136-32.061,68.761-62.281h15.688    c9.986,0,18.11-8.124,18.11-18.11c0-9.594-7.542-17.444-17.02-18.012c0.426-1.733,0.813-3.478,1.135-5.242    c3.493-19.045-1.352-38.539-13.299-53.484c-21.768-27.231-58.753-28.832-83.23-10.639c-24.757-18.34-61.544-16.407-83.164,10.638    c-11.947,14.945-16.795,34.44-13.302,53.485c0.319,1.745,0.699,3.472,1.12,5.187h-0.577c-9.986,0-18.11,8.105-18.11,18.067    C196.477,188.928,204.601,197.052,214.587,197.052z M316.394,252.879c-3.552,2.196-8.143,2.198-11.711-0.005    c-11.838-7.264-42.406-27.66-63.314-55.822h25.846c5.252,0,10.08-2.207,13.435-5.96l9.325,25.36    c2.6,6.899,9.365,11.619,16.832,11.748c0.02,0,0.084,0,0.106,0c7.482,0,14.257-4.628,16.839-11.47l11.918-30.369    c2.901,6.477,9.288,10.692,16.516,10.692h27.514C358.792,225.207,328.237,245.612,316.394,252.879z M221.5,154.324    c-3.098-16.888,1.192-34.16,11.767-47.389c19.577-24.487,53.261-25.364,74.842-7.632c1.396,1.15,3.417,1.148,4.818-0.006    c21.369-17.646,55.214-16.976,74.892,7.64c10.576,13.229,14.863,30.5,11.765,47.385v0.004c-0.403,2.21-0.94,4.387-1.533,6.549    h-32.452l-10.502-34.566c-2.242-7.397-8.953-12.544-16.763-12.811l-0.358-0.005c-7.596,0-14.286,4.498-17.047,11.469    l-13.438,34.233l-7.06-19.174c-2.487-6.795-8.77-11.445-16.003-11.844c-7.176-0.387-14.044,3.624-17.18,10.018l-11.244,22.68    h-32.972C222.439,158.713,221.904,156.535,221.5,154.324z M214.587,168.454h43.769c1.441,0,2.756-0.817,3.395-2.107l12.295-24.8    c1.818-3.704,5.662-6.058,9.959-5.804c4.211,0.233,7.867,2.934,9.315,6.889l10.504,28.532c0.543,1.476,1.941,2.463,3.515,2.481    c1.636-0.074,2.992-0.942,3.567-2.404l17.074-43.497c1.604-4.052,5.528-6.671,9.932-6.671l0.229,0.002    c4.502,0.154,8.402,3.14,9.703,7.435l11.318,37.256c0.486,1.596,1.959,2.688,3.626,2.688h42.025    c5.807,0,10.531,4.704,10.531,10.488c0,5.807-4.724,10.531-10.531,10.531h-52.628c-4.638,0-8.684-2.992-10.06-7.426l-2.465-8.099    c-0.469-1.543-1.863-2.62-3.476-2.684c-1.628-0.043-3.084,0.902-3.676,2.403l-15.83,40.34c-1.492,3.956-5.417,6.614-9.767,6.614    h-0.007c-4.376-0.086-8.328-2.833-9.828-6.814l-12.044-32.757c-0.523-1.421-1.84-2.394-3.353-2.476    c-1.53-0.12-2.926,0.744-3.599,2.098l-1.47,2.962c-1.761,3.602-5.363,5.839-9.397,5.839h-52.628    c-5.807,0-10.531-4.724-10.531-10.531C204.056,173.158,208.78,168.454,214.587,168.454z"/><path style="fill:#332E8E;" d="M93.304,404.522h44.6c11.984,0,22.159-7.827,25.726-18.632    c28.249,15.563,76.684,40.097,101.313,40.094c0.644,0,1.275-0.017,1.887-0.052c51.278-2.878,161.546-81.639,168.259-86.467    c7.208-4.146,11.679-11.861,11.679-20.188c0-8.071-4.083-15.448-10.921-19.734c-6.836-4.284-15.248-4.745-22.452-1.258    l-66.563,30.69c0.173-1.147,0.262-2.323,0.262-3.518c0-6.335-2.467-12.29-6.947-16.77c-4.48-4.48-10.438-6.947-16.773-6.946    l-44.181,0.012c-21.608-19.074-48.663-30.765-72.642-31.338c-16.011-0.382-30.951-0.401-42.258-0.315    c-2.77-12.021-13.537-21.021-26.387-21.021h-44.6c-14.942,0-27.1,12.157-27.1,27.099v101.244    C66.205,392.365,78.362,404.522,93.304,404.522z M206.367,277.992c22.629,0.54,48.365,11.892,68.843,30.365    c0.698,0.628,1.601,0.976,2.539,0.976l45.624-0.012c4.312,0,8.365,1.678,11.415,4.727c3.047,3.048,4.727,7.101,4.727,11.412    c0,3.175-0.923,6.14-2.511,8.639c-0.039,0.056-0.076,0.112-0.111,0.169c-2.884,4.41-7.865,7.329-13.516,7.329h-88.147    c-2.092,0-3.789,1.696-3.789,3.789c0,2.093,1.697,3.789,3.789,3.789h88.147c7.941,0,14.982-3.922,19.289-9.932l73.967-34.106    c4.902-2.371,10.581-2.062,15.191,0.828c4.613,2.891,7.366,7.868,7.366,13.313c0,5.668-3.069,10.914-8.008,13.692    c-0.123,0.07-0.242,0.147-0.358,0.229c-1.142,0.823-114.844,82.385-164.418,85.168c-22.62,1.247-73.514-24.949-101.428-40.424    c0.004-0.175,0.027-0.345,0.027-0.52v-99.749C176.162,277.595,190.753,277.621,206.367,277.992z M73.783,276.178    c0-10.763,8.758-19.521,19.521-19.521h44.6c10.763,0,19.521,8.758,19.521,19.521v101.244c0,10.763-8.758,19.521-19.521,19.521    h-44.6c-10.763,0-19.521-8.758-19.521-19.521V276.178z"/><path style="fill:#332E8E;" d="M131.532,389.758c8.859,0,16.067-7.207,16.067-16.066c0-8.858-7.208-16.065-16.067-16.065    c-8.859,0-16.065,7.207-16.065,16.065C115.467,382.551,122.673,389.758,131.532,389.758z M131.532,365.206    c4.68,0,8.489,3.806,8.489,8.486c0,4.76-3.728,8.488-8.489,8.488c-4.68,0-8.486-3.808-8.486-8.488    C123.046,369.012,126.852,365.206,131.532,365.206z"/></g></g><g id="Layer_1"/></svg>