<?xml version="1.0" ?><svg xmlns="http://www.w3.org/2000/svg" xmlns:xlink="http://www.w3.org/1999/xlink" version="1.1" viewBox="0 0 512 512" style="enable-background:new 0 0 512 512;" xml:space="preserve"><g id="_x30_3_Medical_Report"><g><linearGradient id="SVGID_1_" gradientUnits="userSpaceOnUse" x1="282.3356" y1="-163.9059" x2="229.2504" y2="823.4789"><stop offset="0" style="stop-color:#EAE9FE"/><stop offset="0.4236" style="stop-color:#EEEEFE"/><stop offset="0.8967" style="stop-color:#FBFBFF"/><stop offset="1" style="stop-color:#FFFFFF"/></linearGradient><path style="fill:url(#SVGID_1_);" d="M449.506,263.524c-8.638-6.722-19.071-12.513-23.089-22.694    c-5.464-13.845,3.27-28.704,8.42-42.669c15.726-42.64-4.457-93.136-40.669-120.598c-69.082-52.39-203.931-34.026-222.774,38.385    c-7.971,30.632,6.31,65.58-8.302,93.657c-18.437,35.427-67.345,37.817-98.845,53.57c-39.025,19.517-46.833,62.014-18.845,94.368    c10.278,11.881,23.429,20.066,32.854,33.047c13.639,18.783,21.288,39.553,39.536,55.046c25.696,21.817,68.658,27.226,91.407,2.351    c12.81-14.007,16.978-34.645,30.961-47.482c18.406-16.898,47.498-14.625,70.92-5.923c23.422,8.702,45.145,22.753,69.815,26.712    c38.573,6.191,79.932-16.442,95.512-52.268S480.339,287.516,449.506,263.524z"/><polygon style="fill:#9CE843;" points="69.994,185.64 70.361,398.772 125.28,398.772 124.913,185.64   "/><rect x="89.944" y="185.636" style="fill:#78D119;" width="15.392" height="213.132"/><path style="fill:#FF5859;" d="M69.994,185.64v-31.372c0-5.171,4.192-9.362,9.362-9.362l36.194,0c5.171,0,9.362,4.192,9.362,9.362    l0,31.372L69.994,185.64z"/><path style="fill:#F9BB40;" d="M70.36,398.772l22.976,40.692c1.971,3.49,6.997,3.49,8.968,0l22.976-40.692L70.36,398.772z"/><path style="fill:#2769FD;" d="M84.806,424.311l8.528,15.124c1.97,3.493,7.001,3.493,8.971,0l8.528-15.124L84.806,424.311z"/><path style="fill:#EDEDED;" d="M446.776,86.566v338.051c0,11.721-9.549,21.245-21.27,21.245H157.126    c-11.721,0-21.27-9.524-21.27-21.245V144.895c0-1.061,0.531-2.071,1.137-2.678l75.81-75.81c0.581-0.606,1.617-1.112,2.678-1.112    h210.025C437.227,65.295,446.776,74.819,446.776,86.566z"/><path style="fill:#386E93;" d="M215.48,69.083v58.352c0,9.649-7.822,17.471-17.471,17.471h-58.352L215.48,69.083z"/><path style="fill:#332E8E;" d="M425.505,65.295H215.48c-1.061,0-2.097,0.505-2.678,1.112l-75.81,75.81    c-0.606,0.606-1.137,1.617-1.137,2.678v279.722c0,11.721,9.549,21.245,21.27,21.245h268.379c11.721,0,21.27-9.524,21.27-21.245    V86.566C446.776,74.819,437.227,65.295,425.505,65.295z M211.691,78.229v49.21c0,7.528-6.139,13.667-13.692,13.667h-49.184    L211.691,78.229z M439.197,424.617c0,7.528-6.139,13.666-13.692,13.666H157.126c-7.553,0-13.692-6.139-13.692-13.666V148.684    h54.565c11.721,0,21.27-9.524,21.27-21.245V72.874h206.236c7.553,0,13.692,6.139,13.692,13.692V424.617z"/><path style="fill:#332E8E;" d="M66.572,398.727c0,0.012,0,0.025,0,0.037v0.014c0,0.294,0.042,0.578,0.106,0.853    c0.02,0.087,0.053,0.169,0.08,0.255c0.065,0.209,0.144,0.409,0.242,0.6c0.025,0.048,0.033,0.101,0.06,0.148l22.977,40.692    c1.605,2.846,4.515,4.544,7.782,4.545c0,0,0,0,0.001,0c3.266,0,6.176-1.7,7.783-4.545l22.976-40.692    c0.027-0.047,0.035-0.101,0.06-0.149c0.101-0.198,0.183-0.402,0.247-0.614c0.025-0.082,0.055-0.161,0.074-0.245    c0.065-0.281,0.108-0.568,0.108-0.861v-0.021c0,0,0,0,0-0.001c-0.007-4.917,0.06,40.11-0.366-244.476    c0-7.252-5.9-13.151-13.151-13.151H79.356c-7.252,0-13.151,5.9-13.151,13.151C66.633,438.853,66.565,393.806,66.572,398.727z     M101.497,189.429l0.1,205.549h-7.814l-0.1-205.549H101.497z M121.484,394.982h-12.309l-0.099-205.553h12.054L121.484,394.982z     M86.105,189.429l0.1,205.553h-12.06l-0.355-205.553H86.105z M99.004,437.574c-0.339,0.602-0.888,0.692-1.184,0.692    c-0.297,0-0.846-0.09-1.185-0.692l-5.341-9.473h13.053L99.004,437.574z M108.647,420.522H86.993l-10.142-17.962h41.938    L108.647,420.522z M73.783,154.268c0-3.073,2.5-5.573,5.573-5.573h36.195c3.073,0,5.573,2.5,5.573,5.573v27.583    c-2.136,0-39.633-0.007-47.341,0V154.268z"/><path style="fill:#5EDB6B;" d="M235.834,260.395v50.49c0,4.804-3.931,8.735-8.735,8.735h-50.49c-4.804,0-8.735-3.931-8.735-8.735    v-50.49c0-4.804,3.931-8.735,8.735-8.735h50.49C231.903,251.66,235.834,255.591,235.834,260.395z"/><path style="fill:#5EDB6B;" d="M235.834,352.54v50.49c0,4.804-3.931,8.735-8.735,8.735h-50.49c-4.804,0-8.735-3.931-8.735-8.735    v-50.49c0-4.804,3.931-8.735,8.735-8.735h50.49C231.903,343.804,235.834,347.735,235.834,352.54z"/><path style="fill:#FF5859;" d="M399.408,148.022c-8.054,44.108-56.521,77.746-74.666,88.879c-4.216,2.606-9.57,2.606-13.787,0    c-18.145-11.134-66.612-44.771-74.666-88.879c-5.685-30.985,15.777-61.685,47.33-62.964c12.981-0.521,24.92,3.79,34.206,11.418    c9.239-7.628,21.272-11.939,34.254-11.418C383.632,86.337,405.093,117.037,399.408,148.022z"/><path style="fill:#EDEDED;" d="M314.621,209.038c-5.263-0.09-9.929-3.374-11.739-8.172l-10.587-28.799l-1.285,2.587    c-2.104,4.302-6.424,7.001-11.253,7.001h-46.268c-6.942,0-12.59-5.648-12.59-12.59c0-6.922,5.648-12.553,12.59-12.553h38.478    l10.804-21.791c2.072-4.228,6.491-6.98,11.243-6.98c0.229,0,0.458,0.006,0.687,0.019c5.033,0.278,9.402,3.508,11.13,8.232    l9.235,25.084l15.016-38.25c1.919-4.849,6.582-7.969,11.885-7.969l0.258,0.005c5.384,0.183,10.048,3.758,11.607,8.897l9.95,32.754    h36.945c6.942,0,12.59,5.631,12.59,12.553c0,6.942-5.648,12.59-12.59,12.59H354.46c-5.546,0-10.381-3.573-12.031-8.891    l-2.166-7.12l-13.903,35.424c-1.785,4.73-6.502,7.969-11.703,7.969H314.621z"/><path style="fill:#332E8E;" d="M265.889,264.694c-2.093,0-3.789,1.696-3.789,3.789c0,2.093,1.696,3.789,3.789,3.789H415.51    c2.093,0,3.789-1.696,3.789-3.789c0-2.093-1.696-3.789-3.789-3.789H265.889z"/><path style="fill:#332E8E;" d="M265.889,306.587h92.841c2.093,0,3.789-1.696,3.789-3.789s-1.696-3.789-3.789-3.789h-92.841    c-2.093,0-3.789,1.696-3.789,3.789S263.796,306.587,265.889,306.587z"/><path style="fill:#332E8E;" d="M216.098,272.043l-19.158,19.158l-9.332-9.331c-1.48-1.48-3.881-1.48-5.358,0    c-1.48,1.48-1.48,3.879,0,5.358l12.012,12.01c0.74,0.74,1.71,1.11,2.679,1.11s1.939-0.37,2.679-1.11l21.837-21.837    c1.48-1.479,1.48-3.879,0-5.358C219.976,270.562,217.578,270.562,216.098,272.043z"/><path style="fill:#332E8E;" d="M227.098,247.87h-50.491c-6.905,0-12.523,5.618-12.523,12.525v50.491    c0,6.905,5.618,12.523,12.523,12.523h50.491c6.906,0,12.525-5.618,12.525-12.523v-50.491    C239.623,253.489,234.005,247.87,227.098,247.87z M232.045,310.886c0,2.727-2.219,4.945-4.946,4.945h-50.491    c-2.727,0-4.945-2.218-4.945-4.945v-50.491c0-2.727,2.218-4.946,4.945-4.946h50.491c2.727,0,4.946,2.219,4.946,4.946V310.886z"/><path style="fill:#332E8E;" d="M227.098,340.015h-50.491c-6.905,0-12.523,5.618-12.523,12.525v50.491    c0,6.905,5.618,12.523,12.523,12.523h50.491c6.906,0,12.525-5.618,12.525-12.523v-50.491    C239.623,345.633,234.005,340.015,227.098,340.015z M232.045,403.031c0,2.727-2.219,4.945-4.946,4.945h-50.491    c-2.727,0-4.945-2.218-4.945-4.945v-50.491c0-2.727,2.218-4.946,4.945-4.946h50.491c2.727,0,4.946,2.219,4.946,4.946V403.031z"/><path style="fill:#332E8E;" d="M415.51,356.838H265.889c-2.093,0-3.789,1.696-3.789,3.789c0,2.093,1.696,3.789,3.789,3.789H415.51    c2.093,0,3.789-1.696,3.789-3.789C419.299,358.534,417.603,356.838,415.51,356.838z"/><path style="fill:#332E8E;" d="M374.849,391.153h-108.96c-2.093,0-3.789,1.696-3.789,3.789s1.696,3.789,3.789,3.789h108.96    c2.093,0,3.789-1.696,3.789-3.789S376.942,391.153,374.849,391.153z"/><path style="fill:#332E8E;" d="M216.098,364.187l-19.158,19.158l-9.332-9.331c-1.48-1.48-3.881-1.48-5.358,0    c-1.48,1.48-1.48,3.879,0,5.358l12.012,12.01c0.74,0.74,1.71,1.11,2.679,1.11s1.939-0.37,2.679-1.11l21.837-21.837    c1.48-1.479,1.48-3.879,0-5.358C219.976,362.707,217.578,362.707,216.098,364.187z"/><path style="fill:#332E8E;" d="M217.11,169.065c0,9.032,7.348,16.379,16.379,16.379h15c18.188,26.548,46.216,45.932,60.474,54.68    c2.7,1.67,5.795,2.504,8.888,2.504c3.09,0,6.18-0.833,8.872-2.498c14.259-8.749,42.231-28.153,60.419-54.686h13.585    c9.032,0,16.379-7.348,16.379-16.379c0-8.496-6.532-15.491-14.848-16.265c8.829-36.783-16.203-70.157-50.03-71.529    c-12.437-0.491-24.561,3.181-34.41,10.408c-9.883-7.226-21.988-10.934-34.354-10.407c-34.002,1.376-58.855,35.068-50.036,71.453    C224.426,152.758,217.11,160.073,217.11,169.065z M322.75,233.678c-2.976,1.84-6.824,1.842-9.812-0.006    c-10.281-6.309-36.658-23.923-54.968-48.228h21.787c4.489,0,8.636-1.782,11.639-4.843l7.941,21.602    c2.352,6.239,8.469,10.508,15.219,10.624c0.022,0,0.079,0,0.101,0c6.769,0,12.897-4.188,15.231-10.375l10.097-25.728    c2.8,5.316,8.299,8.719,14.475,8.719h23.257C359.406,209.746,333.037,227.366,322.75,233.678z M283.771,88.844    c11.429-0.463,22.706,3.213,31.649,10.56c1.401,1.148,3.419,1.15,4.818-0.006c8.807-7.271,20.038-11.032,31.688-10.555    c29.325,1.19,51.445,30.779,42.526,63.879h-27.86l-9.133-30.065c-2.03-6.692-8.1-11.347-15.161-11.585l-0.331-0.006    c-6.868,0-12.916,4.068-15.412,10.374l-11.375,28.977l-5.79-15.727c-2.249-6.148-7.932-10.354-14.485-10.715    c-6.484-0.37-12.697,3.282-15.528,9.062l-9.76,19.685h-28.361C232.314,119.229,254.716,90.02,283.771,88.844z M233.489,160.301    h38.478c1.439,0,2.756-0.817,3.395-2.106l10.813-21.807c1.516-3.096,4.956-5.015,8.319-4.846c3.519,0.195,6.573,2.452,7.782,5.758    l9.235,25.084c0.544,1.476,1.943,2.463,3.515,2.481c1.555-0.023,2.994-0.94,3.568-2.404l15.011-38.24    c1.341-3.387,4.623-5.575,8.289-5.577l0.202,0.004c3.762,0.128,7.021,2.624,8.11,6.212l9.95,32.754    c0.485,1.596,1.956,2.688,3.625,2.688h36.945c4.852,0,8.801,3.931,8.801,8.764c0,4.853-3.948,8.801-8.801,8.801H354.46    c-3.876,0-7.257-2.501-8.406-6.204l-2.166-7.12c-0.47-1.543-1.865-2.62-3.476-2.684c-1.629-0.043-3.089,0.899-3.677,2.403    l-13.92,35.471c-1.226,3.248-4.581,5.517-8.158,5.517h-0.001c-3.661-0.075-6.965-2.371-8.217-5.69l-10.587-28.799    c-0.522-1.42-1.839-2.394-3.35-2.476c-1.511-0.121-2.926,0.741-3.599,2.097l-1.296,2.608c-1.47,3.008-4.479,4.877-7.849,4.877    h-46.268c-4.852,0-8.801-3.948-8.801-8.801C224.688,164.232,228.637,160.301,233.489,160.301z"/></g></g><g id="Layer_1"/></svg>