<svg xmlns="http://www.w3.org/2000/svg" xmlns:xlink="http://www.w3.org/1999/xlink" width="1080" zoomAndPan="magnify" viewBox="0 0 810 809.999993" height="1080" preserveAspectRatio="xMidYMid meet" version="1.2"><defs><clipPath id="3c5318c076"><path d="M 375 624 L 440 624 L 440 655.191406 L 375 655.191406 Z M 375 624 "/></clipPath><clipPath id="ec180f3320"><path d="M 433.054688 625 L 493 625 L 493 654 L 433.054688 654 Z M 433.054688 625 "/></clipPath><clipPath id="a6efa97f35"><path d="M 582.40625 356 L 678.84375 356 L 678.84375 473 L 582.40625 473 Z M 582.40625 356 "/></clipPath></defs><g id="d0f01d8717"><rect x="0" width="810" y="0" height="809.999993" style="fill:#ffffff;fill-opacity:1;stroke:none;"/><rect x="0" width="810" y="0" height="809.999993" style="fill:#ffffff;fill-opacity:1;stroke:none;"/><path style=" stroke:none;fill-rule:nonzero;fill:#c4e2e9;fill-opacity:1;" d="M 317.039062 251.507812 C 190.558594 319.070312 119.121094 470.53125 153.152344 554.441406 C 187.167969 638.351562 483.296875 660.871094 587.25 620.765625 C 691.203125 580.664062 674.953125 355.648438 571.210938 259.210938 C 453.066406 149.390625 317.039062 251.507812 317.039062 251.507812 "/><path style=" stroke:none;fill-rule:nonzero;fill:#92b3be;fill-opacity:1;" d="M 364.449219 605.847656 C 364.664062 605.941406 364.890625 605.988281 365.105469 605.953125 C 365.308594 606.359375 365.496094 606.761719 365.699219 607.167969 C 365.285156 606.714844 364.878906 606.273438 364.449219 605.847656 Z M 244.269531 442.539062 C 244.304688 442.464844 244.328125 442.394531 244.351562 442.3125 C 244.433594 442.515625 244.519531 442.703125 244.601562 442.90625 C 244.496094 442.777344 244.375 442.65625 244.269531 442.539062 Z M 382.035156 642.59375 C 378.390625 628.863281 373.09375 615.695312 366.699219 603.035156 C 372.628906 585.53125 372.488281 565.980469 366.914062 548.417969 C 366.152344 546.046875 365.308594 543.714844 364.355469 541.429688 C 363.558594 539.5 362.820312 537.238281 361.460938 535.628906 C 360.449219 534.402344 358.867188 533.722656 357.367188 534.496094 C 355.839844 535.296875 355.257812 537.09375 354.949219 538.664062 C 353.019531 548.429688 352.890625 558.730469 353.984375 568.601562 C 354.664062 574.648438 355.851562 580.613281 357.554688 586.4375 C 356.1875 584.140625 354.792969 581.851562 353.363281 579.589844 C 351.363281 576.410156 349.304688 573.269531 347.210938 570.160156 C 347.234375 570.015625 347.210938 569.863281 347.101562 569.71875 C 346.292969 568.46875 345.410156 567.289062 344.484375 566.160156 C 340.839844 560.882812 337.101562 555.691406 333.28125 550.550781 C 333.515625 548.238281 333.375 545.894531 333.339844 543.570312 C 333.292969 540.902344 333.21875 538.25 333.101562 535.582031 C 332.851562 530.28125 332.339844 524.984375 331.421875 519.746094 C 329.875 510.910156 327.078125 502.253906 322.347656 494.585938 C 319.753906 490.382812 316.5625 486.558594 312.824219 483.308594 C 312.121094 482.699219 311.144531 483.164062 310.917969 483.988281 C 307.253906 497.738281 308.539062 512.515625 314.039062 525.554688 C 313.371094 524.722656 312.71875 523.875 312.050781 523.03125 C 306.277344 515.695312 300.476562 508.386719 294.632812 501.109375 C 294.882812 500.871094 294.988281 500.464844 294.738281 500.132812 C 295.144531 495.25 295.726562 490.429688 296.238281 485.570312 C 296.691406 481.25 296.726562 476.902344 296.285156 472.578125 C 295.40625 463.957031 292.808594 455.5625 288.75 447.917969 C 286.441406 443.5625 283.628906 439.488281 280.390625 435.785156 C 279.867188 435.191406 278.675781 435 278.34375 435.941406 C 272.570312 452.039062 274 470.425781 281.964844 485.546875 C 277.355469 479.972656 272.710938 474.425781 267.984375 468.9375 C 266.246094 466.910156 264.507812 464.910156 262.746094 462.898438 C 263.210938 459.066406 262.734375 454.957031 262.496094 451.121094 C 262.234375 447.050781 261.804688 442.988281 261.152344 438.964844 C 259.867188 431.128906 257.734375 423.414062 254.066406 416.328125 C 252.007812 412.363281 249.460938 408.722656 246.460938 405.410156 C 245.933594 404.828125 244.851562 405.171875 244.566406 405.816406 C 239.71875 416.996094 239.625 429.703125 243.792969 440.882812 C 242.945312 440.238281 242.078125 439.714844 241.171875 439.273438 C 239.113281 437.132812 237.054688 435.011719 234.96875 432.90625 C 234.28125 431.976562 233.542969 431.117188 232.742188 430.308594 C 232.230469 425.199219 231.253906 420.09375 230.480469 415.019531 C 229.800781 410.519531 229.050781 406.03125 228.113281 401.589844 C 226.277344 392.980469 223.5625 384.382812 218.730469 376.953125 C 217.410156 374.929688 215.933594 373.011719 214.300781 371.210938 C 212.765625 369.523438 210.871094 367.558594 208.359375 367.984375 C 207.90625 368.058594 207.382812 368.378906 207.335938 368.890625 C 205.703125 385.644531 209.992188 403.386719 219.609375 417.269531 C 220.074219 417.960938 220.5625 418.628906 221.0625 419.292969 C 220.871094 419.105469 220.683594 418.925781 220.492188 418.746094 C 216.433594 414.949219 212.324219 411.210938 208.132812 407.566406 C 208.132812 407.421875 208.109375 407.28125 208.050781 407.125 C 199.574219 386.621094 182.890625 370.308594 162.628906 361.4375 C 159.867188 360.234375 157.042969 359.175781 154.175781 358.28125 C 152.601562 357.78125 150.757812 357.328125 149.171875 357.734375 C 149.019531 357.6875 148.851562 357.675781 148.660156 357.746094 C 147.710938 358.136719 146.816406 358.589844 146.03125 359.28125 C 145.648438 359.613281 145.460938 360.03125 145.613281 360.542969 C 146.460938 363.367188 147.746094 365.984375 148.792969 368.734375 C 148.863281 368.902344 148.960938 369.035156 149.078125 369.128906 C 156.878906 386.109375 171.972656 399.625 189.75 405.480469 C 194.703125 407.125 200.023438 408.292969 205.289062 408.472656 C 207.742188 410.613281 210.179688 412.792969 212.585938 414.996094 C 215.632812 417.769531 218.644531 420.59375 221.621094 423.460938 C 218.765625 422.402344 215.765625 421.6875 212.777344 421.210938 C 200.800781 419.355469 188.59375 421.640625 176.640625 419.402344 C 175.605469 419.199219 174.640625 420.484375 175.34375 421.378906 C 181.214844 428.941406 189.167969 434.738281 198.121094 438.109375 C 202.511719 439.761719 207.109375 440.859375 211.789062 441.300781 L 239.589844 441.539062 C 245.554688 447.8125 251.386719 454.207031 257.117188 460.695312 C 253.4375 457.945312 249.472656 455.625 245.160156 454.050781 C 240.339844 452.300781 235.304688 451.800781 230.207031 452.265625 C 224.207031 452.8125 218.335938 454.300781 212.289062 454.207031 C 211.300781 454.195312 210.992188 455.351562 211.382812 456.050781 C 215.550781 463.554688 222.625 469.199219 230.777344 471.769531 C 235.480469 473.246094 240.339844 473.414062 245.234375 473.140625 C 250.472656 472.867188 255.804688 472.164062 261.007812 473.164062 C 265.734375 474.066406 270.246094 476.246094 272.832031 480.449219 C 273.222656 481.082031 273.867188 481.046875 274.308594 480.6875 C 280.679688 488.296875 286.941406 495.988281 293.144531 503.730469 C 282.628906 496.75 269.617188 494.085938 256.839844 493.644531 C 251.089844 493.453125 245.328125 493.691406 239.578125 494.011719 C 238.613281 494.074219 238.269531 495.109375 238.683594 495.871094 C 243.472656 504.65625 250.78125 511.910156 259.460938 516.863281 C 263.757812 519.316406 268.390625 521.171875 273.1875 522.351562 C 278.820312 523.734375 284.582031 523.949219 290.359375 523.996094 C 297.25 524.066406 304.003906 524.199219 310.707031 525.851562 C 318.871094 536.199219 327.003906 546.59375 334.769531 557.265625 C 331.207031 554.835938 327.339844 552.859375 323.230469 551.335938 C 311.992188 547.191406 299.882812 546.558594 288.035156 547.453125 C 287.320312 547.5 286.582031 548.347656 286.953125 549.085938 C 291.488281 558.3125 298.679688 565.992188 307.5625 571.183594 C 311.992188 573.769531 316.8125 575.683594 321.8125 576.828125 C 327.050781 578.019531 332.421875 578.449219 337.695312 579.339844 C 340.660156 579.851562 343.636719 580.496094 346.449219 581.566406 C 349.164062 582.617188 351.496094 584.175781 353.914062 585.746094 C 357.449219 591.570312 360.804688 597.511719 363.902344 603.570312 C 363.832031 603.773438 363.769531 603.988281 363.699219 604.191406 C 363.582031 604.535156 363.617188 604.871094 363.746094 605.15625 C 355.867188 597.488281 345.316406 592.546875 334.351562 591.449219 C 330.003906 591.023438 325.636719 591.164062 321.324219 591.9375 C 320.574219 592.070312 320.183594 592.546875 320.148438 593.296875 C 319.859375 598.140625 324.898438 602.082031 328.230469 604.871094 C 331.992188 608 336.171875 610.679688 340.578125 612.8125 C 349.449219 617.109375 359.664062 619.503906 369.546875 618.824219 C 370.175781 618.777344 370.523438 618.371094 370.617188 617.921875 C 373.035156 623.589844 375.199219 629.386719 377.070312 635.28125 C 377.925781 637.996094 378.703125 640.734375 379.429688 643.484375 C 379.878906 645.199219 382.488281 644.296875 382.035156 642.59375 "/><path style=" stroke:none;fill-rule:nonzero;fill:#92b3be;fill-opacity:1;" d="M 410.480469 458.46875 C 410.300781 449.789062 410.289062 441.011719 409.492188 432.367188 C 408.882812 425.6875 407.277344 418.449219 402.097656 413.757812 C 399.953125 411.804688 397.0625 410.921875 394.597656 412.863281 C 391.847656 415.019531 390.632812 419.164062 389.203125 422.1875 C 387.285156 426.296875 385.367188 430.414062 383.429688 434.523438 C 382.035156 437.488281 380.128906 441.15625 376.964844 442.5625 C 372.761719 444.429688 370.222656 439.90625 369.261719 436.535156 C 368.105469 432.5 368.058594 428.226562 368.6875 424.09375 C 371.1875 407.695312 382.726562 394.242188 384.511719 377.632812 C 385.214844 371.09375 384.355469 363.105469 379.761719 357.996094 C 377.546875 355.53125 374.414062 355.304688 371.628906 356.949219 C 368.570312 358.757812 366.640625 362.007812 365.082031 365.09375 C 361.640625 371.925781 360.105469 379.488281 357.890625 386.765625 C 356.757812 390.480469 355.507812 394.457031 353.449219 397.789062 C 352.363281 399.515625 350.625 401.613281 348.472656 401.933594 C 346.019531 402.304688 344.566406 399.992188 343.660156 398.074219 C 336.054688 382.109375 348.03125 364.878906 353.816406 350.445312 C 356.710938 343.21875 359.019531 335.277344 358.019531 327.417969 C 357.234375 321.355469 354.113281 313.675781 347.351562 312.355469 C 340.722656 311.058594 338.46875 318.191406 337.769531 323.296875 C 337.136719 327.917969 336.554688 332.550781 335.933594 337.183594 C 335.46875 340.683594 335.113281 344.242188 333.96875 347.601562 C 333.003906 350.433594 331.386719 353.648438 328.375 354.710938 C 324.753906 355.996094 321.503906 353.757812 319.574219 350.804688 C 315.609375 344.707031 316.335938 336.371094 317.898438 329.621094 C 321.195312 315.34375 329.992188 302.363281 330.636719 287.46875 C 330.875 282.003906 329.003906 275.238281 324.148438 272.132812 C 319.359375 269.082031 313.742188 271.058594 310.441406 275.289062 C 306.121094 280.847656 306.203125 287.445312 306.894531 294.101562 C 307.382812 298.699219 308.179688 303.339844 307.621094 307.972656 C 307.214844 311.425781 305.335938 316.890625 300.789062 315.570312 C 297.046875 314.472656 295.023438 309.769531 294.046875 306.367188 C 293.011719 302.792969 292.929688 299.054688 293.285156 295.375 C 293.976562 288.207031 296.132812 281.253906 297.632812 274.214844 C 299 267.84375 300.238281 260.535156 298.179688 254.175781 C 296.5 248.996094 292.261719 243.53125 286.238281 244.199219 C 279.796875 244.898438 276.664062 251.792969 276.5 257.546875 C 276.367188 261.941406 277.546875 266.203125 277.855469 270.558594 C 278.105469 274.261719 277.199219 280.503906 272.234375 280.539062 C 267.9375 280.574219 266.320312 274.0625 265.140625 270.929688 C 263.699219 267.09375 262.449219 263.203125 261.007812 259.367188 C 258.402344 252.414062 254.792969 245.519531 248.828125 240.839844 C 245.269531 238.042969 241.078125 236.160156 236.671875 235.792969 C 236.589844 235.636719 236.433594 235.527344 236.230469 235.515625 C 235.351562 235.480469 234.515625 235.566406 233.742188 235.765625 C 232.957031 235.828125 232.171875 235.933594 231.386719 236.089844 C 231.015625 236.160156 230.992188 236.648438 231.195312 236.898438 C 228.789062 238.46875 227.136719 241.207031 226.433594 244.136719 C 225.074219 249.867188 227.765625 255.117188 231.828125 259.058594 C 236.792969 263.867188 243.292969 266.417969 249.136719 269.929688 C 252.316406 271.824219 255.425781 274.085938 257.699219 277.039062 C 259.019531 278.753906 262.210938 284.097656 258.664062 285.300781 C 256.972656 285.886719 254.640625 285.148438 252.996094 284.648438 C 250.886719 284.003906 248.9375 282.882812 246.996094 281.847656 C 243.839844 280.15625 240.695312 278.453125 237.171875 277.691406 C 230.765625 276.3125 224.574219 278.871094 222.648438 285.46875 C 220.871094 291.503906 223.410156 297.683594 227.457031 302.175781 C 232.363281 307.605469 239.28125 310.128906 246.328125 311.355469 C 254.042969 312.699219 261.9375 312.652344 269.617188 314.296875 C 273.367188 315.09375 277.023438 316.355469 280.320312 318.34375 C 283.320312 320.167969 289.023438 324.667969 284.320312 327.90625 C 281.464844 329.882812 277.511719 329.488281 274.273438 328.90625 C 270.9375 328.300781 267.722656 327.25 264.449219 326.417969 C 259.054688 325.070312 252.6875 324.738281 248.863281 329.585938 C 245.472656 333.882812 245.78125 340.242188 248.363281 344.839844 C 251.613281 350.613281 258.390625 353.472656 264.617188 354.601562 C 272.890625 356.101562 281.390625 354.851562 289.679688 356.386719 C 293.808594 357.148438 297.824219 358.507812 301.574219 360.402344 C 304.109375 361.6875 311.742188 365.878906 307.417969 369.367188 C 304.800781 371.476562 300 370.855469 296.894531 370.949219 C 292.476562 371.070312 288.046875 371.128906 283.617188 371.226562 C 280.84375 371.296875 277.9375 371.652344 276.390625 374.273438 C 275.105469 376.464844 275.285156 379.308594 276.082031 381.644531 C 278.082031 387.441406 284.082031 391.097656 289.582031 392.980469 C 296.535156 395.359375 303.882812 395.457031 311.074219 396.5625 C 315.050781 397.171875 319.050781 398.097656 322.648438 399.992188 C 325.648438 401.578125 329.195312 404.957031 327.300781 408.648438 C 325.824219 411.554688 321.992188 412.746094 318.96875 412.960938 C 315.300781 413.222656 311.644531 412.316406 307.964844 412.53125 C 302.238281 412.875 297.835938 416.460938 296.988281 422.222656 C 296.167969 427.820312 298.535156 433.273438 302.882812 436.796875 C 308.15625 441.074219 315.074219 442.550781 321.648438 443.382812 C 329.230469 444.347656 338.769531 444.40625 344.839844 449.730469 C 347.316406 451.898438 349.78125 455.589844 348.125 458.945312 C 346.875 461.457031 344.292969 462.195312 341.683594 462.28125 C 336.457031 462.445312 331.054688 460.566406 325.910156 462.113281 C 320.015625 463.863281 317.730469 470.507812 318.824219 476.117188 C 320.050781 482.5 324.921875 487.773438 330.230469 491.203125 C 336.53125 495.25 344.042969 496.871094 350.949219 499.5625 C 356.710938 501.824219 366.960938 506.480469 365.890625 514.207031 C 365.664062 515.863281 364.890625 517.519531 363.484375 518.484375 C 361.570312 519.804688 359.042969 519.171875 356.890625 519.042969 C 354.367188 518.886719 351.960938 519.363281 349.804688 520.734375 C 345.578125 523.4375 343.410156 528.589844 343.078125 533.449219 C 342.183594 546.820312 355.734375 554.144531 366.617188 557.777344 C 371.867188 559.539062 379.390625 561.660156 381.929688 567.195312 C 383.40625 570.398438 381.703125 573.351562 379.488281 575.683594 C 377.214844 578.066406 374.738281 580.175781 373.523438 583.328125 C 371.105469 589.605469 373.261719 596.796875 376.773438 602.203125 C 380.941406 608.609375 387.09375 613.441406 391.15625 619.933594 C 393.941406 624.375 395.667969 630.554688 393.871094 635.652344 C 393.097656 636.664062 392.109375 637.472656 390.808594 637.925781 C 389.15625 638.496094 390.023438 641.066406 391.679688 640.496094 C 391.714844 640.484375 391.75 640.472656 391.785156 640.460938 C 392.167969 641.128906 393.144531 641.484375 393.785156 640.710938 C 394.574219 639.769531 395.203125 638.78125 395.703125 637.734375 C 398.539062 634.363281 399.203125 629.113281 399.835938 624.898438 C 401.226562 615.632812 402.488281 606.347656 403.609375 597.046875 C 405.835938 578.710938 407.550781 560.3125 408.707031 541.878906 C 409.871094 523.328125 410.527344 504.753906 410.65625 486.167969 C 410.730469 476.9375 410.667969 467.699219 410.480469 458.46875 "/><g clip-rule="nonzero" clip-path="url(#3c5318c076)"><path style=" stroke:none;fill-rule:nonzero;fill:#36474e;fill-opacity:1;" d="M 403.40625 624.160156 C 403.40625 624.160156 401.550781 632.804688 405.253906 634.648438 C 408.957031 636.507812 442.578125 648.84375 439.804688 653.476562 C 437.03125 658.09375 374.09375 652.238281 375.023438 649.460938 C 375.953125 646.6875 382.738281 627.863281 382.738281 627.863281 L 403.40625 624.160156 "/></g><g clip-rule="nonzero" clip-path="url(#ec180f3320)"><path style=" stroke:none;fill-rule:nonzero;fill:#36474e;fill-opacity:1;" d="M 460.472656 625.089844 C 460.472656 625.089844 453.996094 636.507812 457.699219 638.351562 C 461.390625 640.210938 495.011719 647.914062 492.238281 651.617188 C 489.464844 655.320312 433.328125 653.476562 433.328125 653.476562 L 439.804688 629.101562 L 460.472656 625.089844 "/></g><path style=" stroke:none;fill-rule:nonzero;fill:#b6998c;fill-opacity:1;" d="M 471.175781 407.769531 C 471.175781 407.769531 484.070312 534.546875 478.820312 553.0625 C 473.582031 571.566406 465.246094 628.019531 460.007812 630.496094 C 454.757812 632.960938 432.554688 634.1875 435.019531 629.257812 C 437.496094 624.316406 444.921875 556.464844 444.898438 551.679688 C 444.886719 546.882812 431.136719 474.09375 431.136719 474.09375 C 431.136719 474.09375 432.46875 543.167969 429.886719 550.417969 C 427.316406 557.679688 412.195312 626.78125 408.492188 629.257812 C 404.789062 631.722656 376.105469 632.960938 377.332031 628.019531 C 378.570312 623.089844 389.988281 550.285156 389.988281 550.285156 L 368.582031 407.769531 L 471.175781 407.769531 "/><path style=" stroke:none;fill-rule:nonzero;fill:#d07e65;fill-opacity:1;" d="M 486.820312 309.855469 C 486.820312 309.855469 494.40625 350.53125 498.097656 351.769531 C 501.800781 352.996094 541.898438 367.1875 545.601562 363.792969 C 549.304688 360.402344 554.554688 355.78125 559.175781 357.625 C 563.808594 359.472656 570.59375 369.046875 570.285156 371.820312 C 569.972656 374.59375 568.140625 378.726562 566.59375 377.894531 C 565.035156 377.058594 545.9375 371.785156 544.53125 372.261719 C 543.136719 372.75 488.847656 366.570312 485.453125 366.570312 C 482.058594 366.570312 468.484375 349.304688 468.484375 349.304688 L 474.046875 313.511719 L 486.820312 309.855469 "/><path style=" stroke:none;fill-rule:nonzero;fill:#cfb3a3;fill-opacity:1;" d="M 466.175781 238.054688 C 460.78125 242.246094 449.984375 237.625 429.003906 261.070312 C 408.027344 284.515625 387.058594 375.832031 386.75 379.226562 C 386.441406 382.621094 471.878906 395.886719 471.878906 395.886719 C 471.878906 395.886719 475.582031 358.554688 476.511719 342.207031 C 477.441406 325.859375 484.832031 315.367188 488.226562 307.03125 C 491.621094 298.710938 484.941406 263.390625 484.941406 263.390625 L 466.175781 238.054688 "/><path style=" stroke:none;fill-rule:nonzero;fill:#36474e;fill-opacity:1;" d="M 519.695312 190.734375 C 519.695312 190.734375 521.851562 198.746094 528.945312 202.449219 C 536.042969 206.152344 539.433594 213.25 532.339844 219.726562 C 525.242188 226.207031 524.015625 224.359375 524.933594 231.457031 C 525.863281 238.554688 525.863281 237.933594 521.539062 240.398438 C 517.230469 242.863281 518.457031 241.328125 518.148438 245.949219 C 517.847656 250.578125 503.214844 253.542969 494.800781 246.972656 C 486.382812 240.398438 519.695312 190.734375 519.695312 190.734375 "/><path style=" stroke:none;fill-rule:nonzero;fill:#ffefe1;fill-opacity:1;" d="M 569.664062 485.652344 C 527.457031 493.976562 523.398438 527.914062 538.507812 540.558594 C 553.628906 553.203125 590.023438 552.90625 602.359375 541.796875 C 614.707031 530.6875 613.46875 477.007812 569.664062 485.652344 "/><path style=" stroke:none;fill-rule:nonzero;fill:#ffefe1;fill-opacity:1;" d="M 499.644531 486.878906 C 457.4375 495.203125 453.378906 529.152344 468.484375 541.796875 C 483.605469 554.441406 520.003906 554.132812 532.339844 543.035156 C 544.6875 531.925781 543.449219 478.246094 499.644531 486.878906 "/><path style=" stroke:none;fill-rule:nonzero;fill:#ffefe1;fill-opacity:1;" d="M 430.863281 488.117188 C 388.65625 496.441406 384.582031 530.378906 399.703125 543.035156 C 414.8125 555.679688 451.222656 555.371094 463.558594 544.261719 C 475.890625 533.152344 474.652344 479.484375 430.863281 488.117188 "/><path style=" stroke:none;fill-rule:nonzero;fill:#ffffff;fill-opacity:1;" d="M 341.398438 476.09375 C 341.398438 476.09375 346.339844 490.273438 336.78125 495.835938 C 327.21875 501.382812 325.363281 506.015625 325.363281 511.5625 C 325.363281 517.113281 325.515625 540.714844 327.289062 545.417969 C 329.066406 550.132812 364.855469 549.035156 366.699219 545.417969 C 368.546875 541.796875 372.640625 515.445312 367.617188 504.15625 C 363.925781 495.835938 357.449219 498.609375 354.351562 493.667969 C 352.402344 490.535156 353.4375 476.09375 353.4375 476.09375 L 341.398438 476.09375 "/><path style=" stroke:none;fill-rule:nonzero;fill:#cfb3a3;fill-opacity:1;" d="M 338.007812 468.996094 C 335.648438 471.351562 337.695312 474.234375 341.398438 476.09375 C 345.101562 477.9375 350.042969 477.007812 353.4375 476.09375 C 356.828125 475.164062 359.292969 471.152344 357.449219 469.304688 C 355.589844 467.449219 339.863281 467.136719 338.007812 468.996094 "/><path style=" stroke:none;fill-rule:nonzero;fill:#ffffff;fill-opacity:1;" d="M 288.65625 483.488281 C 287.726562 489.667969 290.808594 497.988281 285.261719 501.074219 C 279.714844 504.15625 277.855469 505.707031 277.855469 512.183594 C 277.855469 518.660156 277.855469 539.953125 277.855469 543.644531 C 277.855469 547.347656 301.703125 548.40625 302.894531 544.796875 C 304.074219 541.179688 304.074219 510.945312 303.464844 508.480469 C 302.847656 506.015625 296.679688 501.691406 296.679688 499.226562 C 296.679688 496.761719 296.0625 487.808594 296.679688 485.34375 C 297.300781 482.878906 288.65625 483.488281 288.65625 483.488281 "/><path style=" stroke:none;fill-rule:nonzero;fill:#cfb3a3;fill-opacity:1;" d="M 285.878906 478.558594 C 281.988281 481.402344 297.15625 487.070312 299.761719 484.105469 C 302.738281 480.710938 290.132812 475.449219 285.878906 478.558594 "/><path style=" stroke:none;fill-rule:nonzero;fill:#ffffff;fill-opacity:1;" d="M 239.613281 504.15625 C 238.996094 507.859375 243.007812 514.339844 227.886719 519.28125 C 212.777344 524.210938 208.765625 541.796875 238.996094 544.261719 C 269.222656 546.726562 276.320312 526.984375 263.367188 521.746094 C 250.414062 516.492188 249.792969 503.539062 249.792969 503.539062 L 239.613281 504.15625 "/><path style=" stroke:none;fill-rule:nonzero;fill:#cfb3a3;fill-opacity:1;" d="M 235.292969 503.539062 C 234.765625 508.789062 255.339844 506.015625 254.101562 501.074219 C 252.875 496.144531 235.910156 497.371094 235.292969 503.539062 "/><path style=" stroke:none;fill-rule:nonzero;fill:#c4e2e9;fill-opacity:1;" d="M 237.566406 522.148438 C 233.46875 523.613281 230.003906 526.328125 227.730469 530.066406 C 227.265625 530.820312 228.539062 531.652344 229.039062 530.914062 C 231.289062 527.617188 234.328125 525.042969 238.078125 523.636719 C 239.03125 523.28125 238.53125 521.804688 237.566406 522.148438 "/><path style=" stroke:none;fill-rule:nonzero;fill:#c4e2e9;fill-opacity:1;" d="M 245.683594 522.648438 C 243.625 524.636719 241.375 526.496094 239.171875 528.316406 C 237.066406 530.054688 234.753906 531.542969 232.660156 533.296875 C 232.089844 533.769531 232.660156 534.640625 233.328125 534.273438 C 238.21875 531.484375 242.28125 527.042969 245.816406 522.757812 C 245.886719 522.675781 245.769531 522.578125 245.683594 522.648438 "/><path style=" stroke:none;fill-rule:nonzero;fill:#c4e2e9;fill-opacity:1;" d="M 248.542969 527.007812 C 246.625 530.105469 244.113281 532.664062 241.136719 534.746094 C 240.269531 535.355469 241.207031 536.738281 242.054688 536.105469 C 245.148438 533.785156 247.6875 530.867188 249.636719 527.53125 C 250.03125 526.851562 248.949219 526.351562 248.542969 527.007812 "/><path style=" stroke:none;fill-rule:nonzero;fill:#c4e2e9;fill-opacity:1;" d="M 281.878906 512.289062 C 281.523438 518.078125 280.652344 523.839844 279.925781 529.582031 C 279.773438 530.757812 281.628906 531.09375 281.726562 529.925781 C 282.214844 524.042969 282.191406 518.160156 282.285156 512.265625 C 282.285156 511.992188 281.890625 512.039062 281.878906 512.289062 "/><path style=" stroke:none;fill-rule:nonzero;fill:#c4e2e9;fill-opacity:1;" d="M 286.808594 527.246094 C 285.429688 528.28125 284.167969 529.460938 283.082031 530.792969 C 282.203125 531.878906 280.914062 533.332031 280.976562 534.796875 C 280.988281 535.246094 281.535156 535.472656 281.890625 535.234375 C 283.023438 534.496094 283.570312 532.972656 284.40625 531.925781 C 285.394531 530.699219 286.511719 529.605469 287.761719 528.652344 C 288.621094 527.996094 287.691406 526.589844 286.808594 527.246094 "/><path style=" stroke:none;fill-rule:nonzero;fill:#c4e2e9;fill-opacity:1;" d="M 287.691406 532.746094 C 286.023438 534.378906 284.617188 536.1875 283.605469 538.296875 C 283.285156 538.964844 284.40625 539.464844 284.628906 538.785156 C 285.367188 536.628906 286.464844 534.6875 288.058594 533.058594 C 288.273438 532.84375 287.917969 532.53125 287.691406 532.746094 "/><path style=" stroke:none;fill-rule:nonzero;fill:#c4e2e9;fill-opacity:1;" d="M 338.769531 503.515625 C 335.339844 506.121094 332.265625 509.636719 330.851562 513.753906 C 330.539062 514.660156 331.765625 515.304688 332.230469 514.410156 C 334.160156 510.71875 336.363281 507.445312 339.660156 504.835938 C 340.472656 504.207031 339.589844 502.882812 338.769531 503.515625 "/><path style=" stroke:none;fill-rule:nonzero;fill:#c4e2e9;fill-opacity:1;" d="M 346.699219 507.277344 C 340.234375 511.742188 334.054688 517.695312 330.851562 525.007812 C 330.46875 525.875 331.707031 526.449219 332.171875 525.640625 C 336.136719 518.71875 340.421875 512.339844 346.816406 507.433594 C 346.910156 507.359375 346.804688 507.207031 346.699219 507.277344 "/><path style=" stroke:none;fill-rule:nonzero;fill:#c4e2e9;fill-opacity:1;" d="M 347.496094 514.71875 C 344.222656 517.566406 341.148438 520.660156 338.398438 524.007812 C 335.695312 527.292969 332.921875 530.972656 331.304688 534.925781 C 330.933594 535.867188 332.230469 536.878906 332.886719 535.949219 C 335.339844 532.472656 337.410156 528.769531 340.019531 525.390625 C 342.625 522.019531 345.519531 518.898438 348.6875 516.042969 C 349.425781 515.363281 348.257812 514.054688 347.496094 514.71875 "/><path style=" stroke:none;fill-rule:nonzero;fill:#c4e2e9;fill-opacity:1;" d="M 345.328125 527.914062 C 343.863281 529.566406 342.398438 531.234375 340.933594 532.890625 C 340.089844 533.84375 341.601562 535.128906 342.421875 534.164062 C 343.875 532.496094 345.328125 530.820312 346.78125 529.140625 C 347.589844 528.210938 346.148438 526.984375 345.328125 527.914062 "/><path style=" stroke:none;fill-rule:nonzero;fill:#e7d6c7;fill-opacity:1;" d="M 455.972656 513.113281 C 451.902344 506.992188 444.160156 503.265625 436.839844 503.847656 C 429.863281 504.40625 422.765625 508.992188 420.957031 516.03125 C 420.039062 519.613281 420.957031 523.542969 423.957031 525.875 C 426.660156 527.984375 430.375 528.589844 433.71875 528.140625 C 437.125 527.6875 441.125 526.128906 442.578125 522.734375 C 443.746094 519.984375 442.816406 516.195312 439.792969 515.160156 C 438.351562 514.671875 437.28125 516.78125 438.757812 517.339844 C 441.589844 518.398438 440.933594 521.984375 439.03125 523.601562 C 437.019531 525.316406 434.054688 525.949219 431.480469 525.914062 C 428.863281 525.890625 425.992188 525.066406 424.3125 522.9375 C 422.410156 520.496094 422.753906 517.160156 424.039062 514.527344 C 430.078125 502.21875 449.566406 504.859375 454.722656 516.507812 C 456.042969 519.496094 456.007812 522.648438 454.351562 525.484375 C 452.851562 528.054688 450.449219 530.105469 447.996094 531.746094 C 443.351562 534.867188 437.875 536.605469 432.292969 536.902344 C 426.683594 537.1875 421.0625 536.046875 416.109375 533.367188 C 413.46875 531.9375 410.929688 530.054688 409.394531 527.414062 C 407.65625 524.414062 407.46875 520.804688 408.132812 517.46875 C 410.742188 504.480469 425.625 497.074219 437.933594 500.097656 C 438.386719 500.214844 438.507812 499.515625 438.066406 499.40625 C 425.421875 496.023438 410.882812 503.585938 406.789062 516.160156 C 405.65625 519.660156 405.394531 523.589844 406.714844 527.078125 C 408.027344 530.554688 410.753906 533.175781 413.8125 535.175781 C 419.550781 538.902344 426.613281 540.488281 433.410156 539.976562 C 440.269531 539.464844 447.019531 536.914062 452.234375 532.390625 C 454.984375 530.007812 457.460938 527.089844 458.28125 523.460938 C 459.117188 519.863281 457.972656 516.125 455.972656 513.113281 "/><path style=" stroke:none;fill-rule:nonzero;fill:#e7d6c7;fill-opacity:1;" d="M 521.398438 510.183594 C 516.945312 504.644531 510.515625 500.429688 503.144531 501.800781 C 496.789062 502.992188 490.835938 507.945312 489.726562 514.527344 C 489.15625 517.933594 489.871094 521.863281 492.667969 524.148438 C 495.847656 526.769531 501.121094 526.925781 504.730469 525.1875 C 507.917969 523.636719 510.21875 520.03125 509.382812 516.421875 C 508.609375 513.078125 504.871094 510.765625 501.597656 512.125 C 500.226562 512.695312 500.917969 514.828125 502.347656 514.339844 C 505.324219 513.328125 507.777344 516.339844 507.050781 519.136719 C 506.191406 522.484375 502.667969 523.863281 499.515625 523.839844 C 496.300781 523.816406 493.324219 522.472656 492.394531 519.222656 C 491.632812 516.589844 492.238281 513.707031 493.546875 511.363281 C 496.132812 506.753906 501.621094 503.847656 506.871094 504.183594 C 513.074219 504.5625 518.148438 509.5625 521.242188 514.578125 C 523.230469 517.769531 523.601562 521.199219 522.207031 524.722656 C 521.015625 527.722656 518.980469 530.378906 516.695312 532.628906 C 512.003906 537.222656 505.179688 540.425781 498.511719 539.570312 C 495.15625 539.140625 492.058594 537.710938 489.097656 536.140625 C 486.453125 534.746094 483.808594 533.257812 481.535156 531.308594 C 479.128906 529.222656 477.296875 526.589844 476.867188 523.375 C 476.441406 520.054688 477.226562 516.554688 478.429688 513.457031 C 480.832031 507.242188 485.382812 501.980469 491.226562 498.765625 C 498 495.035156 506.167969 494.394531 513.527344 496.632812 C 514.265625 496.859375 514.683594 495.585938 513.945312 495.347656 C 506.394531 492.871094 498.039062 493.359375 490.894531 496.90625 C 484.40625 500.121094 479.152344 505.789062 476.367188 512.46875 C 474.867188 516.078125 473.84375 520.160156 474.449219 524.078125 C 474.988281 527.617188 476.878906 530.605469 479.476562 533.007812 C 482.273438 535.59375 485.714844 537.546875 489.082031 539.285156 C 492.785156 541.214844 496.761719 542.582031 500.976562 542.535156 C 508.957031 542.453125 516.550781 537.855469 521.324219 531.640625 C 523.671875 528.589844 525.589844 525.007812 525.800781 521.101562 C 526.027344 516.945312 523.910156 513.328125 521.398438 510.183594 "/><path style=" stroke:none;fill-rule:nonzero;fill:#e7d6c7;fill-opacity:1;" d="M 596.238281 516.242188 C 595.574219 512.386719 593.335938 509.074219 590.371094 506.585938 C 584.023438 501.242188 573.59375 497.789062 565.617188 501.0625 C 561.855469 502.609375 558.804688 505.539062 557.6875 509.515625 C 556.554688 513.566406 557.542969 518.136719 560.152344 521.421875 C 565.082031 527.640625 576.726562 530.472656 582.167969 523.28125 C 584.511719 520.160156 584.714844 515.921875 582.167969 512.863281 C 579.738281 509.933594 575.761719 509.074219 572.355469 510.777344 C 570.640625 511.636719 569.472656 512.910156 568.832031 514.71875 C 568.484375 515.683594 569.820312 516.816406 570.488281 515.792969 C 572.25 513.078125 575.832031 511.300781 578.832031 513.195312 C 582.070312 515.230469 582.285156 519.472656 579.808594 522.199219 C 574.628906 527.890625 564.320312 524.234375 561.070312 518.230469 C 559.269531 514.910156 559.222656 510.492188 561.414062 507.335938 C 563.402344 504.492188 566.785156 502.8125 570.175781 502.382812 C 577.238281 501.492188 585.859375 504.742188 590.691406 509.980469 C 595.800781 515.503906 594.894531 523.078125 590.597656 528.792969 C 586.285156 534.507812 579.273438 537.925781 572.273438 538.890625 C 565.496094 539.832031 557.972656 538.628906 552.234375 534.761719 C 549.234375 532.722656 546.6875 529.804688 546.148438 526.113281 C 545.613281 522.339844 546.589844 518.136719 547.507812 514.480469 C 548.578125 510.289062 550.304688 506.195312 553.292969 503.015625 C 555.9375 500.214844 559.390625 498.347656 563.019531 497.179688 C 566.675781 496 570.535156 495.5 574.367188 495.347656 C 578.703125 495.15625 583.34375 495.335938 587.09375 497.765625 C 587.929688 498.300781 588.964844 497.132812 588.121094 496.5625 C 584.570312 494.167969 580.378906 493.558594 576.175781 493.523438 C 572 493.476562 567.796875 493.90625 563.757812 495.011719 C 559.902344 496.074219 556.1875 497.835938 553.1875 500.503906 C 549.914062 503.445312 547.757812 507.3125 546.386719 511.457031 C 544.984375 515.707031 543.828125 520.589844 544.03125 525.089844 C 544.222656 529.316406 546.496094 532.925781 549.734375 535.535156 C 556.199219 540.726562 565.332031 542.25 573.355469 540.84375 C 581.535156 539.414062 589.371094 534.9375 593.726562 527.710938 C 595.773438 524.316406 596.917969 520.210938 596.238281 516.242188 "/><path style=" stroke:none;fill-rule:nonzero;fill:#36474e;fill-opacity:1;" d="M 130.71875 435.679688 L 647.402344 431.667969 L 656.03125 456.957031 L 128.253906 456.957031 L 130.71875 435.679688 "/><path style=" stroke:none;fill-rule:nonzero;fill:#36474e;fill-opacity:1;" d="M 145.53125 450.480469 L 154.472656 622.003906 L 168.046875 622.003906 L 169.285156 454.183594 L 145.53125 450.480469 "/><path style=" stroke:none;fill-rule:nonzero;fill:#36474e;fill-opacity:1;" d="M 637.222656 450.480469 L 628.277344 622.003906 L 614.707031 622.003906 L 613.46875 454.183594 L 637.222656 450.480469 "/><path style=" stroke:none;fill-rule:nonzero;fill:#36474e;fill-opacity:1;" d="M 163.117188 544.570312 L 617.480469 545.808594 L 618.707031 555.679688 L 163.117188 554.441406 L 163.117188 544.570312 "/><path style=" stroke:none;fill-rule:nonzero;fill:#4e6169;fill-opacity:1;" d="M 649.804688 444.109375 C 616.371094 443.726562 582.882812 444.441406 549.449219 444.742188 C 515.992188 445.027344 482.535156 445.359375 449.089844 445.777344 C 382.535156 446.597656 315.992188 447.8125 249.449219 449.21875 C 230.683594 449.609375 211.917969 450.109375 193.144531 450.503906 C 174.378906 450.882812 155.589844 450.824219 136.839844 451.671875 C 136.363281 451.695312 136.421875 452.398438 136.886719 452.398438 C 153.613281 452.457031 170.332031 451.789062 187.058594 451.457031 C 203.789062 451.109375 220.515625 450.945312 237.242188 450.730469 C 270.699219 450.289062 304.167969 449.945312 337.625 449.539062 C 404.191406 448.742188 470.761719 447.980469 537.328125 447.40625 C 574.867188 447.085938 612.445312 447.382812 649.972656 446.550781 C 651.566406 446.515625 651.367188 444.121094 649.804688 444.109375 "/><path style=" stroke:none;fill-rule:nonzero;fill:#4e6169;fill-opacity:1;" d="M 622.589844 455.800781 C 622.671875 455.0625 621.527344 454.839844 621.433594 455.589844 C 619.125 473.804688 618.660156 492.335938 619.410156 510.671875 C 619.433594 511.386719 620.539062 511.3125 620.503906 510.601562 C 620.050781 501.539062 619.933594 492.464844 620.265625 483.402344 C 620.601562 474.210938 621.539062 464.945312 622.589844 455.800781 "/><path style=" stroke:none;fill-rule:nonzero;fill:#4e6169;fill-opacity:1;" d="M 621.195312 580.078125 C 620.875 567.410156 620.515625 554.726562 620.027344 542.070312 C 619.753906 534.925781 619.480469 527.78125 619.230469 520.625 C 619.207031 520.007812 618.265625 520.078125 618.265625 520.695312 C 618.574219 546.070312 618.898438 571.433594 619.398438 596.796875 C 619.539062 603.988281 619.636719 611.179688 619.539062 618.371094 C 619.527344 619.886719 621.863281 619.71875 621.875 618.21875 C 621.980469 605.5 621.527344 592.785156 621.195312 580.078125 "/><path style=" stroke:none;fill-rule:nonzero;fill:#4e6169;fill-opacity:1;" d="M 163.222656 551.609375 C 162.855469 531.914062 162.757812 512.21875 162.84375 492.523438 C 162.890625 481.449219 162.949219 470.363281 163.066406 459.292969 C 163.066406 458.480469 161.832031 458.578125 161.816406 459.375 C 161.234375 498.765625 161.378906 538.1875 161.890625 577.578125 C 162.042969 588.640625 162.117188 599.75 162.652344 610.8125 C 162.710938 612.167969 164.757812 612.015625 164.746094 610.667969 C 164.542969 590.984375 163.605469 571.292969 163.222656 551.609375 "/><path style=" stroke:none;fill-rule:nonzero;fill:#ffefe1;fill-opacity:1;" d="M 144.292969 410.375 C 134.886719 416.652344 135.921875 432.773438 142.421875 435.621094 C 148.921875 438.453125 627.777344 435.453125 636.972656 431.855469 C 646.164062 428.273438 650.792969 417.78125 638.757812 411.304688 C 626.730469 404.828125 154.472656 403.589844 144.292969 410.375 "/><path style=" stroke:none;fill-rule:nonzero;fill:#f7a78b;fill-opacity:1;" d="M 591.871094 376.441406 C 586.941406 377.058594 554.867188 379.832031 550.542969 382.621094 C 546.222656 385.394531 536.351562 396.492188 541.292969 398.351562 C 546.222656 400.195312 576.140625 397.109375 576.140625 397.109375 L 591.871094 376.441406 "/><path style=" stroke:none;fill-rule:nonzero;fill:#f7a78b;fill-opacity:1;" d="M 563.1875 382 C 563.1875 382 555.164062 370.273438 533.886719 372.128906 C 512.597656 373.976562 473.1875 399.195312 447.519531 384.773438 C 424.992188 372.128906 417.289062 368.425781 396.621094 369.652344 C 375.953125 370.890625 295.132812 387.238281 283.417969 389.097656 C 271.6875 390.941406 250.589844 380.035156 228.503906 386.621094 C 207.835938 392.800781 191.488281 396.492188 185.941406 387.859375 C 183.558594 384.15625 173.414062 391.574219 163.414062 397.109375 C 152.757812 403.027344 142.351562 407.257812 145.222656 408.53125 C 150.769531 410.996094 525.863281 407.601562 538.816406 406.363281 C 551.769531 405.136719 566.273438 395.886719 566.273438 395.886719 L 563.1875 382 "/><path style=" stroke:none;fill-rule:nonzero;fill:#ed9678;fill-opacity:1;" d="M 576.140625 397.109375 L 585.464844 384.871094 L 582.511719 377.429688 C 580.332031 377.65625 577.929688 377.917969 575.453125 378.191406 C 568.796875 383.261719 561.546875 391.8125 560.007812 398.457031 C 568.308594 397.921875 576.140625 397.109375 576.140625 397.109375 "/><path style=" stroke:none;fill-rule:nonzero;fill:#f7a78b;fill-opacity:1;" d="M 627.660156 388.476562 C 627.277344 396.097656 615.933594 409.757812 598.667969 411.613281 C 581.394531 413.460938 567.511719 405.757812 568.738281 400.8125 C 569.972656 395.886719 573.988281 381.382812 585.714844 375.214844 C 597.429688 369.046875 628.277344 376.128906 627.660156 388.476562 "/><path style=" stroke:none;fill-rule:nonzero;fill:#f7a78b;fill-opacity:1;" d="M 547.460938 378.917969 C 553.628906 378.917969 562.570312 381.070312 563.808594 391.5625 C 565.035156 402.054688 612.847656 422.105469 618.097656 420.867188 C 623.339844 419.628906 640.304688 409.757812 646.472656 410.375 C 652.640625 410.996094 653.257812 417.78125 650.175781 422.105469 C 647.089844 426.414062 636.910156 431.976562 636.910156 431.976562 C 636.910156 431.976562 593.738281 433.964844 588.796875 434.046875 C 583.855469 434.132812 529.253906 407.601562 524.933594 400.8125 C 520.625 394.027344 547.460938 378.917969 547.460938 378.917969 "/><g clip-rule="nonzero" clip-path="url(#a6efa97f35)"><path style=" stroke:none;fill-rule:nonzero;fill:#4e6169;fill-opacity:1;" d="M 582.511719 377.429688 C 589.40625 369.652344 594.65625 359.175781 602.050781 361.949219 C 609.457031 364.722656 614.398438 364.414062 619.945312 360.089844 C 631.386719 351.195312 646.472656 360.710938 648.9375 374.59375 C 651.414062 388.476562 654.292969 393.445312 660.664062 395.886719 C 675.164062 401.433594 685.34375 419.332031 673.925781 429.820312 C 662.507812 440.300781 666.320312 437.835938 669.605469 450.789062 C 674.546875 470.222656 646.816406 474.414062 647.710938 471.460938 C 654.496094 448.945312 647.089844 435.679688 647.402344 431.667969 C 647.710938 427.652344 648.175781 420.292969 641.851562 416.542969 C 636.828125 413.578125 634.339844 413.414062 628.839844 415.902344 C 623.339844 418.402344 603.179688 410.898438 603.179688 410.898438 C 603.179688 410.898438 610.074219 407.601562 613.160156 403.898438 C 616.242188 400.195312 619.945312 392.179688 614.398438 392.800781 C 608.835938 393.40625 598.050781 393.71875 592.488281 386.621094 C 586.941406 379.523438 582.511719 377.429688 582.511719 377.429688 "/></g><path style=" stroke:none;fill-rule:nonzero;fill:#ffffff;fill-opacity:1;" d="M 368.546875 369.652344 C 372.25 372.128906 369.164062 389.097656 371.628906 417.78125 C 374.09375 446.480469 388.59375 448.015625 385.511719 472.078125 C 382.429688 496.144531 400.011719 496.761719 425.613281 477.320312 C 451.222656 457.886719 472.1875 440.917969 487.929688 437.214844 C 503.65625 433.511719 496.5625 415.007812 491.929688 409.757812 C 487.308594 404.519531 488.535156 382.917969 484.832031 384.773438 C 481.140625 386.621094 462.320312 386.3125 454.914062 380.761719 C 447.519531 375.214844 425.921875 366.570312 412.96875 365.960938 C 400.011719 365.34375 370.402344 369.046875 370.402344 369.046875 L 368.546875 369.652344 "/><path style=" stroke:none;fill-rule:nonzero;fill:#c4e2e9;fill-opacity:1;" d="M 466.046875 387.417969 C 465.460938 386.550781 464.867188 385.691406 464.257812 384.847656 C 463.757812 384.167969 462.664062 384.917969 463.175781 385.585938 C 463.808594 386.417969 464.460938 387.226562 465.128906 388.039062 C 465.582031 388.5625 466.4375 388.015625 466.046875 387.417969 "/><path style=" stroke:none;fill-rule:nonzero;fill:#c4e2e9;fill-opacity:1;" d="M 465.570312 393.382812 C 465.570312 393.347656 465.535156 393.359375 465.535156 393.382812 C 465.496094 394.21875 465.472656 395.050781 465.449219 395.886719 C 465.4375 396.027344 465.664062 396.015625 465.652344 395.871094 C 465.628906 395.039062 465.605469 394.207031 465.570312 393.382812 "/><path style=" stroke:none;fill-rule:nonzero;fill:#c4e2e9;fill-opacity:1;" d="M 465.902344 405.863281 C 465.855469 405.207031 464.914062 405.304688 464.902344 405.933594 C 464.746094 411.425781 464.4375 416.914062 463.925781 422.378906 C 463.414062 427.714844 462.320312 432.988281 461.832031 438.324219 C 461.757812 439.226562 462.949219 439.441406 463.222656 438.585938 C 464.855469 433.308594 465.332031 427.605469 465.785156 422.128906 C 466.222656 416.710938 466.257812 411.28125 465.902344 405.863281 "/><path style=" stroke:none;fill-rule:nonzero;fill:#c4e2e9;fill-opacity:1;" d="M 480.332031 417.53125 C 480.082031 414.054688 479.476562 410.636719 478.976562 407.195312 C 477.953125 400.253906 476.832031 393.335938 475.640625 386.417969 C 475.558594 385.964844 474.84375 386 474.902344 386.464844 C 475.785156 393.21875 476.785156 399.945312 477.761719 406.683594 C 478.226562 409.921875 478.511719 413.199219 478.59375 416.460938 C 478.664062 419.367188 478.355469 422.175781 478.105469 425.035156 C 475.75 421.808594 474.9375 417.542969 475.570312 413.625 C 475.714844 412.78125 474.402344 412.53125 474.273438 413.375 C 473.425781 418.617188 474.988281 423.605469 478.09375 427.820312 C 478.59375 428.511719 479.546875 428.238281 479.761719 427.476562 C 480.691406 424.355469 480.558594 420.746094 480.332031 417.53125 "/><path style=" stroke:none;fill-rule:nonzero;fill:#c4e2e9;fill-opacity:1;" d="M 419.148438 445.941406 C 418.945312 444.894531 417.277344 445.003906 417.46875 446.0625 C 418.871094 453.539062 419.289062 461.421875 418.085938 468.984375 C 412.550781 457.265625 416.671875 443.941406 417.445312 431.535156 C 417.671875 428.070312 417.742188 424.535156 417.265625 421.09375 C 416.765625 417.496094 415.742188 414.019531 415.050781 410.472656 C 414.359375 406.96875 413.847656 403.457031 413.945312 399.875 C 414.050781 396.359375 414.609375 392.871094 415.265625 389.429688 C 416.671875 382.109375 418.335938 374.714844 416.660156 367.296875 C 416.539062 366.757812 415.730469 367.046875 415.847656 367.570312 C 417.457031 374.714844 415.859375 381.953125 414.5625 389.015625 C 413.980469 392.253906 413.394531 395.515625 413.207031 398.8125 C 412.992188 402.363281 413.335938 405.886719 413.847656 409.398438 C 414.945312 416.855469 415.789062 424.128906 414.921875 431.667969 C 414.109375 438.644531 412.730469 445.585938 412.667969 452.636719 C 412.621094 459.457031 413.765625 466.6875 417.742188 472.402344 C 418.195312 473.054688 419.386719 472.902344 419.492188 472.042969 C 420.574219 463.28125 420.777344 454.660156 419.148438 445.941406 "/><path style=" stroke:none;fill-rule:nonzero;fill:#c4e2e9;fill-opacity:1;" d="M 401.824219 462.542969 C 400.953125 454.765625 398.703125 447.167969 396.050781 439.835938 C 393.359375 432.378906 390.214844 425.082031 387.832031 417.519531 C 385.308594 409.484375 383.558594 401.253906 382.5 392.90625 C 381.953125 388.503906 381.785156 384.074219 381.261719 379.679688 C 380.820312 375.988281 379.953125 372.34375 377.664062 369.332031 C 377.296875 368.84375 376.5 369.378906 376.867188 369.878906 C 381.167969 375.640625 380.378906 383.835938 381.128906 390.632812 C 381.976562 398.3125 383.429688 405.910156 385.273438 413.414062 C 388.882812 428.117188 395.3125 442.109375 398.074219 457.003906 C 398.8125 461.007812 399.226562 465.007812 399.289062 469.066406 C 399.324219 471.914062 399.511719 475.832031 397.714844 478.332031 C 395.761719 470.1875 394.714844 461.757812 394.5 453.398438 C 394.476562 452.480469 393.109375 452.597656 393.097656 453.492188 C 393.011719 462.660156 394.121094 471.628906 396.285156 480.546875 C 396.441406 481.199219 397.238281 481.308594 397.738281 481.035156 C 400.394531 479.535156 401.539062 476.53125 401.90625 473.652344 C 402.382812 469.972656 402.238281 466.210938 401.824219 462.542969 "/><path style=" stroke:none;fill-rule:nonzero;fill:#c4e2e9;fill-opacity:1;" d="M 402.941406 423.984375 C 401.800781 416.53125 400.917969 409.042969 400.90625 401.480469 C 400.90625 400.933594 400.0625 401.003906 400.050781 401.539062 C 399.976562 409.136719 400.417969 416.746094 401.953125 424.1875 C 402.0625 424.75 403.027344 424.558594 402.941406 423.984375 "/><path style=" stroke:none;fill-rule:nonzero;fill:#c4e2e9;fill-opacity:1;" d="M 445.53125 413.28125 C 444.136719 419.304688 443.234375 425.414062 442.960938 431.59375 C 442.921875 432.546875 444.375 432.429688 444.421875 431.5 C 444.722656 425.449219 445.410156 419.425781 446.613281 413.484375 C 446.746094 412.792969 445.6875 412.589844 445.53125 413.28125 "/><path style=" stroke:none;fill-rule:nonzero;fill:#ed9678;fill-opacity:1;" d="M 582.214844 431.558594 C 573.011719 426.128906 563.414062 421.308594 554.019531 416.222656 C 549.4375 413.746094 544.769531 411.398438 540.28125 408.746094 C 536.257812 406.351562 532.554688 403.566406 528.828125 400.71875 C 524.800781 397.648438 521.125 394.382812 516.515625 392.195312 C 516.0625 391.980469 515.742188 392.65625 516.183594 392.882812 C 524.386719 397.3125 530.316406 404.554688 537.910156 409.804688 C 542.066406 412.675781 546.699219 414.9375 551.128906 417.316406 C 555.792969 419.832031 560.449219 422.34375 565.117188 424.855469 C 570.488281 427.75 575.808594 430.808594 581.285156 433.5 C 582.546875 434.132812 583.394531 432.25 582.214844 431.558594 "/><path style=" stroke:none;fill-rule:nonzero;fill:#ed9678;fill-opacity:1;" d="M 615.886719 421.746094 C 606.347656 416.746094 596.609375 412.113281 586.976562 407.328125 C 579.023438 403.386719 570.34375 399.515625 564.046875 393.085938 C 560.496094 389.453125 558.175781 384.800781 554.292969 381.464844 C 553.816406 381.058594 553.234375 381.773438 553.675781 382.203125 C 556.914062 385.40625 559.054688 389.539062 562.09375 392.945312 C 565.058594 396.277344 568.535156 399.230469 572.273438 401.683594 C 580.40625 407.03125 589.417969 411.066406 598.109375 415.4375 C 603.691406 418.246094 609.242188 421.152344 614.882812 423.84375 C 616.230469 424.484375 617.195312 422.4375 615.886719 421.746094 "/><path style=" stroke:none;fill-rule:nonzero;fill:#ed9678;fill-opacity:1;" d="M 492.371094 207.703125 C 487.5 213.273438 473.976562 236.742188 459.332031 242.984375 C 450.914062 246.566406 482.058594 278.644531 483.605469 274.644531 C 486.308594 267.605469 485.105469 260.332031 487.5 255.605469 C 489.894531 250.867188 498.121094 239.566406 498.121094 239.566406 L 492.371094 207.703125 "/><path style=" stroke:none;fill-rule:nonzero;fill:#d07e65;fill-opacity:1;" d="M 475.605469 228.671875 C 475.925781 240.613281 480.929688 254.59375 485.773438 260.320312 C 486.308594 258.460938 486.882812 256.832031 487.5 255.605469 C 489.894531 250.867188 498.121094 239.566406 498.121094 239.566406 L 495.523438 225.207031 L 487.296875 214.179688 C 484.144531 218.335938 480.09375 223.621094 475.605469 228.671875 "/><path style=" stroke:none;fill-rule:nonzero;fill:#ed9678;fill-opacity:1;" d="M 523.101562 200.390625 C 533.46875 206.175781 515.132812 242.984375 504.503906 246.925781 C 493.871094 250.867188 480.320312 239.042969 480.320312 226.945312 C 480.320312 214.847656 484.570312 204.332031 497.335938 194.078125 C 510.085938 183.828125 523.101562 200.390625 523.101562 200.390625 "/><path style=" stroke:none;fill-rule:nonzero;fill:#4e6169;fill-opacity:1;" d="M 527.101562 199.675781 C 526.171875 211.703125 519.074219 215.109375 512.597656 214.179688 C 506.121094 213.25 507.765625 216.359375 503.242188 218.8125 C 498.714844 221.277344 495.203125 218.144531 495.261719 216.464844 C 495.324219 214.796875 499.644531 206.464844 494.40625 206.464844 C 489.15625 206.464844 485.988281 214.523438 485.417969 219.289062 C 484.832031 224.050781 488.535156 222.8125 486.691406 225.277344 C 484.832031 227.753906 484.046875 226.644531 482.128906 233.828125 C 480.214844 241.019531 476.203125 238.863281 474.046875 235.160156 C 471.878906 231.457031 473.425781 234.851562 467.261719 232.992188 C 461.09375 231.148438 457.390625 225.277344 458.304688 217.882812 C 459.234375 210.476562 453.996094 209.855469 459.542969 206.152344 C 465.09375 202.449219 464.484375 203.378906 471.878906 199.058594 C 479.285156 194.746094 479.59375 189.496094 490.703125 183.945312 C 501.800781 178.398438 507.980469 175.613281 514.457031 180.863281 C 520.933594 186.101562 527.101562 199.675781 527.101562 199.675781 "/><path style=" stroke:none;fill-rule:nonzero;fill:#ed9678;fill-opacity:1;" d="M 473.117188 300.554688 C 473.117188 300.554688 488.535156 327.394531 494.703125 336.644531 C 500.882812 345.910156 529.253906 368.734375 541.589844 368.425781 C 553.9375 368.117188 559.175781 371.511719 563.1875 374.285156 C 567.199219 377.058594 568.523438 378.261719 569.402344 383.523438 C 570.285156 388.789062 569.972656 390.941406 569.046875 389.097656 C 568.128906 387.238281 567.140625 388.5625 564.234375 387.753906 C 561.34375 386.929688 552.390625 377.058594 545.914062 376.128906 C 539.433594 375.214844 531.71875 375.214844 528.945312 375.214844 C 526.171875 375.214844 485.453125 358.863281 482.679688 357.316406 C 479.902344 355.78125 449.363281 319.367188 449.363281 319.367188 L 473.117188 300.554688 "/><path style=" stroke:none;fill-rule:nonzero;fill:#b6998c;fill-opacity:1;" d="M 472.75 298.886719 C 472.023438 298.898438 471.820312 299.863281 472.261719 300.28125 C 470.535156 301.414062 468.878906 302.746094 467.261719 303.914062 C 465.019531 305.53125 462.820312 307.1875 460.652344 308.890625 C 456.328125 312.273438 452.164062 315.84375 448.125 319.558594 C 447.9375 319.738281 447.875 319.929688 447.898438 320.105469 C 445.601562 318.390625 443.304688 316.6875 441.019531 314.976562 C 446.042969 309.832031 451.449219 305.007812 457.269531 300.769531 C 460.246094 298.589844 463.34375 296.566406 466.523438 294.695312 C 467.355469 294.207031 468.1875 293.730469 469.035156 293.269531 C 469.425781 293.054688 469.808594 292.839844 470.199219 292.636719 C 471.058594 292.183594 471.355469 291.683594 472.070312 292.707031 C 472.832031 293.792969 475.617188 298.816406 472.75 298.886719 Z M 475.84375 297.601562 C 475.890625 296.496094 475.4375 295.480469 474.9375 294.53125 C 474.390625 293.457031 473.832031 292.042969 473.035156 291.136719 C 472.34375 290.351562 471.472656 290.398438 470.605469 290.71875 C 470.652344 290.492188 470.605469 290.230469 470.4375 289.957031 C 468.035156 286.085938 466.199219 281.65625 464.808594 277.3125 C 464.664062 276.871094 463.890625 276.992188 463.972656 277.480469 C 464.890625 282.242188 466.484375 286.527344 468.605469 290.875 C 468.75 291.160156 468.949219 291.339844 469.164062 291.433594 C 468.902344 291.589844 468.640625 291.742188 468.402344 291.875 C 466.164062 293.089844 463.972656 294.375 461.820312 295.746094 C 454.878906 300.175781 448.4375 305.355469 442.746094 311.296875 C 442.757812 311.117188 442.710938 310.914062 442.566406 310.722656 C 440.53125 307.816406 438.339844 305.042969 436.375 302.078125 C 434.589844 299.363281 433.054688 296.019531 430.648438 293.792969 C 430.601562 293.742188 430.503906 293.792969 430.503906 293.863281 C 430.980469 297.03125 433.136719 300.125 434.792969 302.816406 C 436.671875 305.878906 438.695312 309.019531 441.042969 311.757812 C 441.304688 312.082031 441.671875 312.152344 441.996094 312.09375 C 441.257812 312.878906 440.53125 313.675781 439.828125 314.488281 C 439.28125 314.605469 438.875 315.1875 439.066406 315.699219 C 439.089844 315.832031 439.171875 315.9375 439.269531 316.023438 C 439.304688 316.046875 439.328125 316.082031 439.363281 316.105469 C 441.851562 318 444.339844 319.890625 446.816406 321.796875 C 447.664062 322.441406 448.699219 321.511719 448.460938 320.738281 C 448.722656 320.820312 449.042969 320.796875 449.292969 320.558594 C 453.351562 316.785156 457.566406 313.1875 461.9375 309.769531 C 464.035156 308.128906 466.164062 306.53125 468.320312 304.984375 C 470.535156 303.390625 473.070312 302.019531 475.128906 300.28125 C 475.5 299.972656 475.5 299.554688 475.296875 299.28125 C 475.628906 298.816406 475.820312 298.234375 475.84375 297.601562 "/><path style=" stroke:none;fill-rule:nonzero;fill:#b6998c;fill-opacity:1;" d="M 463.03125 270.226562 C 462.722656 268.808594 462.628906 267.371094 462.4375 265.929688 C 462.140625 263.617188 461.746094 261.296875 460.925781 259.105469 C 459.617188 255.582031 457.269531 252.09375 453.652344 250.675781 C 444.996094 247.304688 435.898438 256.128906 431.53125 262.617188 C 431.242188 263.046875 431.828125 263.582031 432.160156 263.152344 C 434.804688 259.738281 438.089844 256.796875 441.695312 254.4375 C 445.136719 252.1875 449.578125 250.496094 453.566406 252.390625 C 456.890625 253.960938 458.804688 257.511719 459.84375 260.890625 C 460.484375 262.988281 460.890625 265.140625 461.390625 267.273438 C 461.902344 269.40625 462.164062 271.75 463.09375 273.738281 C 463.246094 274.074219 463.878906 274.039062 463.808594 273.585938 C 463.605469 272.453125 463.257812 271.359375 463.03125 270.226562 "/><path style=" stroke:none;fill-rule:nonzero;fill:#b6998c;fill-opacity:1;" d="M 429.683594 290.910156 C 429.253906 290.027344 428.707031 289.21875 428.195312 288.398438 C 427.707031 287.625 426.578125 288.410156 427.027344 289.183594 C 427.480469 289.96875 427.910156 290.789062 428.445312 291.527344 C 428.886719 292.136719 430.054688 291.648438 429.683594 290.910156 "/><path style=" stroke:none;fill-rule:nonzero;fill:#b6998c;fill-opacity:1;" d="M 482.976562 279.574219 C 482.738281 279.027344 481.867188 279.3125 482.09375 279.871094 C 484.132812 284.835938 484.308594 290.300781 483.832031 295.601562 C 483.605469 298.113281 483.167969 300.589844 482.535156 303.019531 C 481.855469 305.640625 480.773438 308.105469 480.058594 310.710938 C 479.890625 311.320312 480.808594 311.570312 481.082031 311.035156 C 482.296875 308.640625 483.011719 305.839844 483.726562 303.246094 C 484.453125 300.578125 485.082031 297.839844 485.382812 295.089844 C 485.953125 289.730469 485.117188 284.503906 482.976562 279.574219 "/><path style=" stroke:none;fill-rule:nonzero;fill:#b6998c;fill-opacity:1;" d="M 468.628906 349.207031 C 467.449219 353.660156 466.308594 358.125 465.558594 362.675781 C 465.1875 364.902344 464.867188 367.128906 464.640625 369.367188 C 464.402344 371.523438 463.949219 373.925781 464.210938 376.09375 C 464.355469 377.273438 466.058594 377.429688 466.308594 376.214844 C 466.757812 374.058594 466.605469 371.675781 466.773438 369.472656 C 466.949219 367.222656 467.152344 364.972656 467.425781 362.734375 C 467.984375 358.269531 468.617188 353.792969 469.640625 349.398438 C 469.796875 348.742188 468.796875 348.566406 468.628906 349.207031 "/><path style=" stroke:none;fill-rule:nonzero;fill:#b6998c;fill-opacity:1;" d="M 446.984375 361.304688 C 446.816406 361.292969 446.648438 361.355469 446.507812 361.460938 C 439.933594 359.507812 433.316406 357.6875 426.636719 356.160156 C 423.253906 355.398438 419.847656 354.78125 416.445312 354.089844 C 415.230469 353.839844 413.683594 353.578125 412.8125 352.589844 C 412.109375 351.792969 412.359375 350.898438 412.894531 350.101562 C 412.957031 350.292969 413.109375 350.445312 413.359375 350.507812 C 419.148438 351.898438 424.992188 353.066406 430.753906 354.542969 C 433.542969 355.257812 436.328125 355.972656 439.125 356.648438 C 440.519531 356.996094 441.910156 357.328125 443.316406 357.636719 C 444.863281 357.984375 446.710938 358.125 448.234375 358.652344 C 447.804688 359.53125 447.386719 360.414062 446.984375 361.304688 Z M 448.886719 358.019531 C 447.316406 357.886719 445.625 357.148438 444.113281 356.757812 C 442.722656 356.398438 441.328125 356.042969 439.921875 355.710938 C 437.03125 355.007812 434.136719 354.351562 431.230469 353.683594 C 426.148438 352.519531 421.113281 351.136719 416.0625 349.851562 C 416.359375 349.46875 416.371094 348.792969 415.824219 348.613281 C 415.382812 348.46875 414.933594 348.316406 414.492188 348.171875 C 414.574219 347.589844 413.800781 346.945312 413.21875 347.375 C 413.097656 347.46875 412.980469 347.554688 412.859375 347.648438 C 412.242188 347.542969 411.835938 348.003906 411.847656 348.480469 C 411.230469 349.066406 410.730469 349.742188 410.539062 350.601562 C 410.40625 351.230469 410.457031 351.863281 410.667969 352.433594 C 410.429688 355.328125 409.667969 358.101562 408.382812 360.734375 C 407.953125 361.589844 409.359375 362.246094 409.707031 361.367188 C 410.667969 358.863281 411.242188 356.28125 411.40625 353.636719 C 411.480469 353.695312 411.539062 353.769531 411.609375 353.828125 C 412.574219 354.671875 413.882812 355.078125 415.121094 355.316406 C 417.121094 355.710938 419.160156 355.9375 421.171875 356.304688 C 429.601562 357.875 437.933594 359.816406 446.078125 362.484375 C 445.4375 364.59375 444.6875 366.664062 444.136719 368.796875 C 443.851562 369.9375 445.601562 370.25 445.925781 369.140625 C 446.53125 367.046875 446.925781 364.878906 447.4375 362.757812 C 447.542969 362.710938 447.636719 362.628906 447.699219 362.496094 C 448.199219 361.199219 448.722656 359.914062 449.175781 358.601562 C 449.257812 358.375 449.175781 358.042969 448.886719 358.019531 "/><path style=" stroke:none;fill-rule:nonzero;fill:#b6998c;fill-opacity:1;" d="M 434.101562 323.429688 C 429.921875 325.15625 425.828125 327.121094 421.875 329.3125 C 419.875 330.417969 417.921875 331.597656 416.015625 332.859375 C 414.230469 334.039062 412.074219 335.300781 410.71875 336.992188 C 410.40625 337.371094 410.789062 338.050781 411.289062 337.824219 C 413.132812 337.027344 414.777344 335.597656 416.445312 334.453125 C 418.324219 333.179688 420.242188 331.929688 422.183594 330.738281 C 426.113281 328.324219 430.195312 326.238281 434.433594 324.429688 C 435.066406 324.167969 434.730469 323.167969 434.101562 323.429688 "/><path style=" stroke:none;fill-rule:nonzero;fill:#b6998c;fill-opacity:1;" d="M 441.960938 328.179688 C 435.078125 331.632812 428.300781 335.730469 422.625 340.980469 C 422.171875 341.398438 422.863281 342.160156 423.351562 341.789062 C 429.566406 337.207031 435.695312 332.667969 442.460938 328.917969 C 442.984375 328.644531 442.460938 327.917969 441.960938 328.179688 "/><path style=" stroke:none;fill-rule:nonzero;fill:#b6998c;fill-opacity:1;" d="M 447.554688 338.003906 C 444.863281 339.980469 442.03125 341.800781 439.457031 343.933594 C 438.734375 344.527344 439.484375 345.707031 440.292969 345.160156 C 443.054688 343.289062 445.601562 341.0625 448.257812 339.039062 C 448.886719 338.550781 448.210938 337.515625 447.554688 338.003906 "/></g></svg>