<?xml version="1.0" ?><svg xmlns="http://www.w3.org/2000/svg" xmlns:xlink="http://www.w3.org/1999/xlink" version="1.1" viewBox="0 0 512 512" style="enable-background:new 0 0 512 512;" xml:space="preserve"><g id="_x35_0_Smart_Watch"><g><linearGradient id="SVGID_1_" gradientUnits="userSpaceOnUse" x1="282.3356" y1="-163.9059" x2="229.2504" y2="823.4789"><stop offset="0" style="stop-color:#EAE9FE"/><stop offset="0.4236" style="stop-color:#EEEEFE"/><stop offset="0.8967" style="stop-color:#FBFBFF"/><stop offset="1" style="stop-color:#FFFFFF"/></linearGradient><path style="fill:url(#SVGID_1_);" d="M449.506,263.524c-8.638-6.722-19.071-12.513-23.089-22.694    c-5.464-13.845,3.27-28.704,8.42-42.669c15.726-42.64-4.457-93.136-40.669-120.598c-69.082-52.39-203.931-34.026-222.774,38.385    c-7.971,30.632,6.31,65.58-8.302,93.657c-18.437,35.427-67.345,37.817-98.845,53.57c-39.025,19.517-46.833,62.014-18.845,94.368    c10.278,11.881,23.429,20.066,32.854,33.047c13.639,18.783,21.288,39.553,39.536,55.046c25.696,21.817,68.658,27.226,91.407,2.351    c12.81-14.007,16.978-34.645,30.961-47.482c18.406-16.898,47.498-14.625,70.92-5.923c23.422,8.702,45.145,22.753,69.815,26.712    c38.573,6.191,79.932-16.442,95.512-52.268S480.339,287.516,449.506,263.524z"/><path style="fill:#F9BB40;" d="M354.6,181.163v148.839c0,3.568-0.558,7.062-1.588,10.315c-0.953,3.176-2.379,6.193-4.284,8.893    c-1.193,1.824-2.622,3.571-4.207,5.078c0,0.081,0,0.081-0.085,0.163c-17.62,17.384-31.588,38.099-38.022,61.994l-4.446,16.749    c-1.821,6.984-8.092,11.829-15.316,11.829H211.32c-7.221,0-13.492-4.845-15.401-11.829l-4.365-16.671    c-6.352-23.972-20.56-44.688-38.102-62.234c-6.271-6.19-10.079-14.843-10.079-24.287V181.163c0-2.699,0.314-5.24,0.953-7.778    c0.155-0.875,0.314-1.747,0.635-2.541c1.665-5.318,4.602-10.082,8.491-13.971c0-0.078,0-0.078,0.081-0.159    c17.624-17.384,31.595-38.103,37.944-61.994l4.443-16.752c1.909-6.984,8.18-11.826,15.401-11.826h75.333    c7.224,0,13.495,4.842,15.316,11.826l4.446,16.671c6.352,23.972,20.482,44.691,38.106,62.234    C350.711,163.066,354.6,171.638,354.6,181.163"/><path style="fill:#EDEDED;" d="M374.653,208.348v31.254c0,5.42-4.433,9.856-9.86,9.856h-10.205v-50.969h10.205    C370.22,198.489,374.653,202.925,374.653,208.348"/><path style="fill:#EDEDED;" d="M374.653,271.564v31.254c0,5.42-4.433,9.856-9.86,9.856h-10.205v-50.969h10.205    C370.22,261.704,374.653,266.141,374.653,271.564"/><path style="fill:#EDEDED;" d="M331.816,183.669v144.205c0,7.538-6.102,13.641-13.608,13.641l-119.697-0.065l-0.033,0.033h-18.797    c-2.807,0-5.45-0.848-7.604-2.317c-0.718-0.489-1.403-1.077-1.99-1.664c-2.48-2.447-3.982-5.841-3.982-9.627l-0.033-144.205    c0-2.252,0.522-4.34,1.469-6.2v-0.033c2.284-4.601,7.081-7.767,12.564-7.767h137.678    C325.518,169.669,331.816,175.935,331.816,183.669z"/><path style="fill:#FF5859;" d="M310.095,245.263c-5.979,32.744-41.959,57.716-55.43,65.981c-3.13,1.934-7.104,1.934-10.235,0    c-13.471-8.265-49.451-33.237-55.43-65.981c-4.221-23.002,11.712-45.793,35.136-46.742c9.637-0.387,18.5,2.814,25.394,8.476    c6.858-5.663,15.792-8.863,25.429-8.476C298.383,199.47,314.315,222.261,310.095,245.263z"/><path style="fill:#332E8E;" d="M364.793,194.699h-6.404v-13.536c0-10.171-3.972-19.748-11.193-26.976    c-36.863-36.691-37.498-66.682-41.561-77.174c-2.25-8.632-10.055-14.659-18.983-14.659h-75.333    c-8.866,0-16.701,6.01-19.062,14.641c-3.789,9.815-4.67,40.803-41.403,77.041c-0.148,0.148-0.286,0.313-0.41,0.491    c-6.93,7.095-10.862,16.623-10.862,26.636v148.839c0,10.267,3.979,19.852,11.19,26.966c19.03,19.035,31.52,39.397,37.115,60.514    l4.376,16.711c2.353,8.607,10.189,14.619,19.055,14.619h75.333c8.928,0,16.733-6.029,18.981-14.646l4.441-16.736    c9.608-35.684,36.191-59.042,37.424-60.749c6.738-6.635,10.892-16.46,10.892-26.68v-13.539h6.404    c7.527,0,13.65-6.121,13.65-13.645v-31.254c0-7.527-6.123-13.65-13.65-13.65h-6.404v-4.667h6.404    c7.527,0,13.65-6.121,13.65-13.645v-31.254C378.442,200.822,372.319,194.699,364.793,194.699z M341.909,351.543    c-0.178,0.17-0.336,0.353-0.474,0.55c-19.568,19.398-32.581,40.717-38.684,63.381l-4.448,16.765    c-1.382,5.297-6.172,8.995-11.651,8.995h-75.333c-5.459,0-10.29-3.718-11.733-8.999l-4.369-16.682    c-5.945-22.437-19.097-43.951-39.104-63.961c-5.773-5.699-8.953-13.366-8.953-21.591V181.162c0-8.296,3.352-15.997,8.97-21.611    c0.148-0.148,0.281-0.306,0.402-0.474c38.059-37.733,39.247-70.285,43.043-80.112c1.453-5.319,6.283-9.034,11.743-9.034h75.333    c5.479,0,10.27,3.698,11.656,9.012c4.006,10.322,4.918,42.17,43.532,80.608c5.785,5.787,8.97,13.462,8.97,21.611    c0,0.335-0.03,67.421,0,68.417c0-0.273-0.012,16.787,0,80.422C350.81,338.507,347.207,346.51,341.909,351.543z M364.793,265.493    c3.348,0,6.071,2.724,6.071,6.071v31.254c0,3.345-2.724,6.066-6.071,6.066h-6.404v-43.391H364.793z M370.864,239.602    c0,3.345-2.724,6.066-6.071,6.066h-6.404v-43.391h6.404c3.348,0,6.071,2.724,6.071,6.071V239.602z"/><path style="fill:#332E8E;" d="M317.785,165.88H180.107c-9.728,0-17.821,7.905-17.821,17.789l0.032,144.206    c0,9.635,7.748,17.397,17.365,17.397c150.051,0.035,137.507,0.032,138.527,0.032c9.592,0,17.397-7.818,17.397-17.429V183.669    C335.606,173.86,327.611,165.88,317.785,165.88z M328.028,327.875c0,5.432-4.404,9.851-9.816,9.851    c-0.329,0,6.528,0.001-138.529-0.032c-5.53,0-9.786-4.476-9.786-9.818l-0.032-144.206c0-5.712,4.689-10.211,10.243-10.211h137.678    c5.647,0,10.243,4.581,10.243,10.211V327.875z"/><path style="fill:#332E8E;" d="M317.042,253.558h-5.153c0.796-2.486,1.46-5.02,1.933-7.611    c2.349-12.806-0.913-25.915-8.948-35.968c-14.455-18.084-38.863-19.395-55.351-7.746c-16.683-11.76-40.951-10.209-55.304,7.746    c-8.035,10.053-11.296,23.162-8.948,35.966c0.473,2.592,1.137,5.126,1.933,7.613h-6.359c-2.092,0-3.789,1.697-3.789,3.789    c0,2.092,1.697,3.789,3.789,3.789h9.282c11.996,26.265,39.545,45.499,52.311,53.333c2.161,1.335,4.635,2.001,7.112,2.001    c2.472,0,4.944-0.666,7.095-1.996c12.771-7.838,40.321-27.074,52.319-53.338h8.077c2.092,0,3.789-1.697,3.789-3.789    C320.832,255.255,319.134,253.558,317.042,253.558z M192.728,244.58c-1.954-10.645,0.747-21.532,7.413-29.87    c12.381-15.488,33.546-15.828,46.983-4.786c1.399,1.15,3.419,1.15,4.818-0.005c13.428-11.092,34.644-10.682,47.013,4.791    c6.666,8.338,9.367,19.225,7.413,29.87v0.002c-0.559,3.061-1.409,6.055-2.489,8.975h-18.69l-8.617-28.365    c-0.974-3.21-3.89-5.442-7.384-5.558c-3.333,0-6.259,1.949-7.46,4.978l-14.518,36.98l-9.685-26.308    c-1.081-2.953-3.811-4.973-6.959-5.146c-3.089-0.17-6.071,1.542-7.448,4.349l-9.456,19.07h-18.445    C194.136,250.637,193.287,247.642,192.728,244.58z M252.675,308.021c-1.907,1.174-4.357,1.169-6.264-0.005    c-9.105-5.589-35.377-23.197-47.798-46.88h17.4c1.441,0,2.756-0.817,3.395-2.107l10.507-21.191    c0.037-0.072,0.136-0.131,0.225-0.131c0.113,0.02,0.21,0.02,0.271,0.187l13.132,35.667c0.543,1.475,1.941,2.462,3.515,2.479    c0.012,0,0.027,0,0.039,0c1.557,0,2.958-0.952,3.528-2.405l18.154-46.243c0.03-0.074,0.178-0.18,0.281-0.183    c0.126,0.005,0.227,0.076,0.259,0.183l9.434,31.054c0.486,1.599,1.959,2.689,3.626,2.689h18.104    C288.062,284.818,261.788,302.428,252.675,308.021z"/></g></g><g id="Layer_1"/></svg>